<svg width="34" height="25" viewBox="0 0 34 25" fill="none" xmlns="http://www.w3.org/2000/svg">
<path d="M11.7095 22.9671C11.7186 22.7279 11.532 22.5268 11.2928 22.5177C11.2928 22.5177 11.2927 22.5177 11.2927 22.5177C5.63929 22.3079 1.1018 17.7785 0.881833 12.1255H2.6C2.83931 12.1255 3.03333 11.9315 3.03333 11.6922C3.03333 11.4529 2.83931 11.2589 2.6 11.2589H0.881833C1.09866 5.61583 5.62358 1.09107 11.2667 0.874454V2.15885C11.2667 2.39816 11.4607 2.59219 11.7 2.59219C11.9393 2.59219 12.1333 2.39816 12.1333 2.15885V0.874454C17.6992 1.08971 22.1913 5.49704 22.5125 11.0578L20.8225 9.36779C20.6504 9.2015 20.3761 9.20626 20.2098 9.3784C20.0476 9.54632 20.0476 9.81255 20.2098 9.98052L22.6287 12.3994C22.6742 12.4545 22.7329 12.4973 22.7994 12.5238C22.8164 12.5288 22.8336 12.5331 22.851 12.5363C22.8807 12.547 22.9115 12.5545 22.9428 12.5584C22.9472 12.5584 22.9511 12.5584 22.9554 12.5584C22.9597 12.5584 22.9636 12.5584 22.9675 12.5584C23.0005 12.5559 23.0331 12.5495 23.0646 12.5394C23.0824 12.5372 23.1001 12.5339 23.1175 12.5294C23.1761 12.5085 23.2295 12.4751 23.2739 12.4315L25.7257 9.98052C25.8919 9.80838 25.8872 9.53408 25.7151 9.36779C25.5472 9.20561 25.2809 9.20561 25.113 9.36779L23.3809 11.0985C23.0714 4.88723 17.9497 0.00740833 11.7308 -0.00174583C11.7199 -0.00217917 11.7108 -0.0078125 11.7 -0.0078125C11.6892 -0.0078125 11.6801 -0.00217917 11.6692 -0.00174583C5.23153 0.00708333 0.0148958 5.22371 0.00606667 11.6614C0.00606667 11.6723 0 11.6814 0 11.6922C0 11.703 0.00563333 11.7121 0.00606667 11.723C0.0168458 18.0018 4.9861 23.1505 11.2606 23.384H11.2766C11.5095 23.3839 11.7007 23.1998 11.7095 22.9671Z" fill="white"/>
<path d="M18.2227 14.4609V15.0703L14.6895 22.9922H13.5469L17.0742 15.3516H12.457V14.4609H18.2227ZM23.3496 14.4609L19.793 23.7246H18.8613L22.4238 14.4609H23.3496ZM29.9297 14.4609V15.0703L26.3965 22.9922H25.2539L28.7812 15.3516H24.1641V14.4609H29.9297Z" fill="white"/>
</svg>
