<svg width="42" height="42" viewBox="0 0 42 42" fill="none" xmlns="http://www.w3.org/2000/svg">
<path d="M21.0094 32.6943C20.6674 32.6943 20.3377 32.5686 20.0808 32.3401C19.1105 31.4787 18.1751 30.6693 17.3497 29.9553L17.3455 29.9515C14.9257 27.8581 12.8361 26.0501 11.3822 24.2692C9.757 22.2782 9 20.3905 9 18.3282C9 16.3246 9.67674 14.4761 10.9054 13.1231C12.1488 11.754 13.8548 11 15.7098 11C17.0963 11 18.366 11.445 19.4836 12.3225C20.0477 12.7655 20.5589 13.3076 21.0094 13.94C21.46 13.3076 21.971 12.7655 22.5353 12.3225C23.6529 11.445 24.9226 11 26.3091 11C28.1639 11 29.8701 11.754 31.1135 13.1231C32.3421 14.4761 33.0187 16.3246 33.0187 18.3282C33.0187 20.3905 32.2619 22.2782 30.6367 24.269C29.1828 26.05 27.0936 27.8577 24.6743 29.9509L24.6739 29.9512C23.8471 30.6663 22.9102 31.4771 21.9377 32.3405C21.681 32.5686 21.3511 32.6943 21.0094 32.6943ZM15.7098 12.4284C14.2524 12.4284 12.9136 13.0189 11.9397 14.0912C10.9512 15.1797 10.4068 16.6844 10.4068 18.3282C10.4068 20.0627 11.0418 21.6139 12.4654 23.3578C13.8411 25.0432 15.8873 26.8135 18.2565 28.8633L18.2579 28.8645L18.2623 28.8682C19.0907 29.5851 20.0299 30.3977 21.0073 31.2654C21.9906 30.396 22.9313 29.5821 23.7614 28.8642L23.7678 28.8586C26.1346 26.8106 28.1787 25.042 29.5535 23.3578C30.977 21.6139 31.6119 20.0627 31.6119 18.3282C31.6119 16.6844 31.3044 15.354 30.079 14.0912C28.9585 12.9364 27.7663 12.4284 26.3091 12.4284C25.2415 12.4284 24.2613 12.7729 23.3958 13.4524C22.6245 14.0581 22.0872 14.8238 21.7722 15.3596C21.6102 15.6351 21.3251 15.7996 21.0094 15.7996C20.6936 15.7996 20.4085 15.6351 20.2465 15.3596C19.9317 14.8238 19.3944 14.0581 18.6229 13.4524C17.7574 12.7729 16.7772 12.4284 15.7098 12.4284Z" fill="#333333"/>
<path d="M21.0094 32.6943C20.6674 32.6943 20.3377 32.5686 20.0808 32.3401C19.1105 31.4787 18.1751 30.6693 17.3497 29.9553L17.3455 29.9515C14.9257 27.8581 12.8361 26.0501 11.3822 24.2692C9.757 22.2782 9 20.3905 9 18.3282C9 16.3246 9.67674 14.4761 10.9054 13.1231C12.1488 11.754 13.8548 11 15.7098 11C17.0963 11 18.366 11.445 19.4836 12.3225C20.0477 12.7655 20.5589 13.3076 21.0094 13.94C21.46 13.3076 21.971 12.7655 22.5353 12.3225C23.6529 11.445 24.9226 11 26.3091 11C28.1639 11 29.8701 11.754 31.1135 13.1231C32.3421 14.4761 33.0187 16.3246 33.0187 18.3282C33.0187 20.3905 32.2619 22.2782 30.6367 24.269C29.1828 26.05 27.0936 27.8577 24.6743 29.9509L24.6739 29.9512C23.8471 30.6663 22.9102 31.4771 21.9377 32.3405C21.681 32.5686 21.3511 32.6943 21.0094 32.6943ZM15.7098 12.4284C14.2524 12.4284 12.9136 13.0189 11.9397 14.0912C10.9512 15.1797 10.4068 16.6844 10.4068 18.3282C10.4068 20.0627 11.0418 21.6139 12.4654 23.3578C13.8411 25.0432 15.8873 26.8135 18.2565 28.8633L18.2579 28.8645L18.2623 28.8682C19.0907 29.5851 20.0299 30.3977 21.0073 31.2654C21.9906 30.396 22.9313 29.5821 23.7614 28.8642L23.7678 28.8586C26.1346 26.8106 28.1787 25.042 29.5535 23.3578C30.977 21.6139 31.6119 20.0627 31.6119 18.3282C31.6119 16.6844 31.3044 15.354 30.079 14.0912C28.9585 12.9364 27.7663 12.4284 26.3091 12.4284C25.2415 12.4284 24.2613 12.7729 23.3958 13.4524C22.6245 14.0581 22.0872 14.8238 21.7722 15.3596C21.6102 15.6351 21.3251 15.7996 21.0094 15.7996C20.6936 15.7996 20.4085 15.6351 20.2465 15.3596C19.9317 14.8238 19.3944 14.0581 18.6229 13.4524C17.7574 12.7729 16.7772 12.4284 15.7098 12.4284Z" stroke="#333333"/>
<circle cx="21" cy="21" r="20.0846" stroke="#C0C0C0" stroke-width="1.83077"/>
</svg>
