<svg width="54" height="54" viewBox="0 0 54 54" fill="none" xmlns="http://www.w3.org/2000/svg">
<path d="M35.7469 0.0517769C35.5836 0.0898705 31.9974 1.37961 27.7744 2.91423L20.1013 5.70594L18.0878 5.91818C16.9831 6.03246 13.9574 6.34809 11.367 6.62019C4.94554 7.29499 3.22589 7.48001 2.88849 7.55075C1.47358 7.83918 0.396082 9.39013 0.0750083 11.6104C-0.00117874 12.1383 -0.00662068 14.228 0.00426318 31.4082L0.020589 50.6182L0.140311 50.9719C0.488595 51.995 1.31033 52.8113 2.33341 53.165L2.68713 53.2847L24.8249 53.3011C44.2798 53.3119 47.0062 53.3011 47.3545 53.2303C48.4755 52.9963 49.4442 52.1256 49.8306 50.9991L49.9775 50.5638L49.9938 43.6144L50.0047 36.6705L51.0278 36.6488C51.9257 36.6324 52.0781 36.6161 52.2958 36.5127C52.6386 36.3549 52.976 36.0393 53.1501 35.7127L53.2971 35.4352V31.6531V27.8709L53.1665 27.6152C53.0032 27.2832 52.6876 26.9621 52.3556 26.8043C52.1216 26.6846 52.0182 26.6737 51.055 26.6574L50.0047 26.6356V19.8822C50.0047 15.4361 49.9829 13.0036 49.9449 12.775C49.8251 12.0131 49.3299 11.1751 48.7313 10.7125C48.2089 10.3098 47.398 9.99418 46.881 9.99418H46.7015L46.6688 7.99155C46.647 6.19572 46.6307 5.95083 46.5273 5.56989C46.1899 4.30737 45.3029 3.53461 43.9751 3.34959C43.6159 3.29517 43.3329 3.31149 41.9234 3.45842C41.0255 3.55094 40.2419 3.62712 40.182 3.62712C40.0895 3.62712 40.0297 3.50196 39.8065 2.87614C39.6596 2.46799 39.4583 1.96733 39.3549 1.76598C38.8215 0.732018 37.7386 0.0572166 36.5359 0.00279999C36.2475 -0.00808334 35.921 0.0136833 35.7469 0.0517769ZM37.2216 1.86938C37.7713 2.17413 37.7713 2.17957 39.246 6.23381C39.9861 8.26365 40.5902 9.93976 40.5902 9.96153C40.5902 9.97786 39.4474 9.98874 38.0542 9.9833L35.5183 9.96697L35.3877 9.65134C35.0503 8.81873 34.1415 7.79564 33.3306 7.33308C32.5144 6.86507 31.7797 6.67461 30.8219 6.67461C29.2057 6.67461 27.8452 7.34396 26.8439 8.63914C26.6044 8.95477 26.2126 9.65134 26.1582 9.86902L26.1255 9.99418H19.7095C16.0634 9.99418 13.3315 9.97242 13.3805 9.94521C13.4241 9.918 16.3301 8.85682 19.8292 7.57796C23.3338 6.30455 28.4111 4.4543 31.1212 3.46387L36.0462 1.66803L36.487 1.68436C36.857 1.70068 36.9713 1.72789 37.2216 1.86938ZM44.2635 5.13454C44.5465 5.28147 44.6934 5.44473 44.8458 5.77669C44.9655 6.04334 44.9709 6.09776 44.9873 8.01876L45.0036 9.99418H43.703C42.7071 9.99418 42.3915 9.97786 42.3697 9.92344C41.9398 8.78063 40.699 5.2978 40.7153 5.27603C40.7317 5.26514 41.265 5.1944 41.9071 5.12366C43.3003 4.97128 43.9478 4.97128 44.2635 5.13454ZM13.4349 8.1276C13.3914 8.14393 12.2214 8.57384 10.8337 9.0745L8.31409 9.99418H5.60401C3.37826 9.99418 2.84495 10.0105 2.58918 10.0758C2.41504 10.1193 2.26266 10.1574 2.24634 10.1574C2.19192 10.1574 2.40415 9.80916 2.58918 9.60781C2.97011 9.18878 2.93202 9.19422 6.16997 8.84594C12.9016 8.11127 13.6798 8.03509 13.4349 8.1276ZM31.4858 8.39426C32.2423 8.54663 32.9551 8.99287 33.434 9.60236C33.5701 9.77106 33.6789 9.92888 33.6789 9.95065C33.6789 9.97786 32.3946 9.99418 30.8219 9.99418H27.9595L28.0248 9.86902C28.139 9.6459 28.5635 9.18878 28.8302 8.99287C29.6356 8.3997 30.5389 8.19835 31.4858 8.39426ZM47.2892 11.7683C47.6375 11.9315 47.9694 12.2471 48.1436 12.5737L48.2905 12.8512L48.3068 19.7461L48.3177 26.6465L41.45 26.6574L34.5768 26.6737L34.2667 26.8261C33.8857 27.0111 33.5538 27.3757 33.4232 27.7512C33.3306 28.0124 33.3252 28.3063 33.3252 31.6803V35.3264L33.4667 35.6257C33.668 36.061 33.8585 36.2515 34.2667 36.4528L34.6313 36.6324L41.4718 36.6488L48.3177 36.6596V43.4621C48.3177 50.1339 48.3177 50.2645 48.2089 50.5529C48.0674 50.9338 47.8007 51.2331 47.4416 51.4345L47.1477 51.5977L25.0589 51.6141L2.97011 51.6249L2.69258 51.4998C2.28987 51.3148 2.01234 51.0481 1.83275 50.6726L1.68038 50.3461V31.6748C1.68038 10.7234 1.63684 12.7369 2.09941 12.2254C2.3715 11.9206 2.65448 11.7519 3.00277 11.6812C3.12793 11.6594 13.0867 11.6431 25.1351 11.6485L47.0389 11.654L47.2892 11.7683ZM51.2455 28.4423C51.3434 28.5022 51.4686 28.6274 51.5285 28.7253C51.6318 28.8994 51.6373 29.0083 51.6373 31.6585V34.4121L51.5121 34.5971C51.4468 34.7005 51.3053 34.8257 51.2019 34.8747C51.0224 34.9672 50.5326 34.9726 43.3166 34.9726H35.6271L35.4149 34.8529C35.2789 34.7767 35.1646 34.6516 35.0938 34.5101C34.9904 34.2924 34.985 34.1727 34.985 31.6313C34.985 29.0736 34.9904 28.9756 35.0938 28.7634C35.1591 28.6437 35.2843 28.4967 35.3822 28.4423C35.5509 28.3335 35.7088 28.3335 43.3111 28.3335C50.9516 28.3335 51.0659 28.3335 51.2455 28.4423Z" fill="#E24C55"/>
<path d="M3.71328 15.1091C3.62077 15.1744 3.49016 15.3322 3.42486 15.4682C3.27793 15.7621 3.31602 16.0669 3.51737 16.3117C3.77314 16.611 3.86566 16.6328 5.0139 16.6328C5.96624 16.6328 6.08052 16.6219 6.24378 16.524C6.5322 16.3498 6.64648 16.1158 6.61927 15.7458C6.60295 15.4682 6.57574 15.4084 6.4016 15.2288L6.20024 15.0274L5.04111 15.0111C3.95273 15.0002 3.87654 15.0057 3.71328 15.1091Z" fill="#E24C55"/>
<path d="M8.69385 15.1308C8.4925 15.2669 8.31836 15.5934 8.31836 15.8274C8.31836 16.056 8.53059 16.3934 8.74827 16.5131C8.94418 16.6274 9.03125 16.6328 10.0108 16.6328C11.1917 16.6328 11.306 16.6002 11.5291 16.241C11.7577 15.8655 11.6216 15.3376 11.2461 15.1091C11.0829 15.0111 10.9686 15.0002 9.97815 15.0002C8.91153 15.0002 8.88432 15.0057 8.69385 15.1308Z" fill="#E24C55"/>
<path d="M13.709 15.12C13.3389 15.3757 13.2301 15.8328 13.4532 16.2192C13.6654 16.5947 13.8069 16.6328 14.9878 16.6328C16.1197 16.6328 16.283 16.5947 16.5007 16.2954C16.6639 16.0777 16.6857 15.6206 16.5442 15.3921C16.3102 15.0274 16.2014 15.0002 14.9824 15.0002C13.9375 15.0002 13.8777 15.0057 13.709 15.12Z" fill="#E24C55"/>
<path d="M18.7085 15.1254C18.1861 15.4737 18.235 16.2791 18.7901 16.5457C18.9425 16.6165 19.1656 16.6328 19.9928 16.6328C20.8199 16.6328 21.0431 16.6165 21.1954 16.5457C21.7505 16.2791 21.7995 15.4737 21.2771 15.1254C21.0975 15.0057 21.0431 15.0002 19.9928 15.0002C18.9425 15.0002 18.8881 15.0057 18.7085 15.1254Z" fill="#E24C55"/>
<path d="M23.7308 15.1091C23.4478 15.2832 23.3281 15.5227 23.3553 15.8601C23.3771 16.192 23.5077 16.3988 23.7798 16.5349C23.9376 16.6165 24.1226 16.6328 24.9988 16.6328C26.1797 16.6328 26.3212 16.5947 26.5334 16.2192C26.7565 15.8328 26.6477 15.3757 26.2776 15.12C26.1089 15.0057 26.0491 15.0002 25.0042 15.0002C24.0084 15.0002 23.8941 15.0111 23.7308 15.1091Z" fill="#E24C55"/>
<path d="M28.7356 15.1091C28.4907 15.2614 28.3438 15.5227 28.3438 15.8165C28.3438 16.1104 28.4907 16.3716 28.7356 16.524C28.8988 16.6219 29.0131 16.6328 29.9763 16.6328C30.9069 16.6328 31.0647 16.6219 31.228 16.5294C31.4348 16.4206 31.6633 16.0451 31.6633 15.822C31.6579 15.5825 31.4729 15.2397 31.2715 15.12C31.0919 15.0057 31.0103 15.0002 29.9981 15.0002C29.0131 15.0002 28.8988 15.0111 28.7356 15.1091Z" fill="#E24C55"/>
<path d="M33.7543 15.1036C33.4658 15.2778 33.3516 15.4737 33.3516 15.7839C33.3516 16.1104 33.4876 16.3662 33.7434 16.524C33.9066 16.6219 34.0209 16.6328 34.9896 16.6328C36.0072 16.6328 36.0671 16.6274 36.2358 16.5076C36.5242 16.3117 36.6385 16.1213 36.6385 15.8274C36.6385 15.5227 36.497 15.256 36.2576 15.1036C36.1052 15.0111 35.98 15.0002 35.0059 15.0002C34.0427 15.0002 33.9066 15.0111 33.7543 15.1036Z" fill="#E24C55"/>
<path d="M38.8204 15.0492C38.3143 15.256 38.1674 16.0015 38.5592 16.3716C38.8313 16.6219 38.8966 16.6328 40.0067 16.6328C41.0135 16.6328 41.0734 16.6274 41.2421 16.5076C41.5359 16.3117 41.6448 16.1213 41.6448 15.822C41.6448 15.6261 41.6067 15.5009 41.5087 15.3594C41.2856 15.0274 41.1659 15.0002 39.9795 15.0057C39.4027 15.0057 38.8803 15.0274 38.8204 15.0492Z" fill="#E24C55"/>
<path d="M43.7074 15.1091C43.6149 15.1744 43.4843 15.3322 43.419 15.4682C43.2721 15.7621 43.3102 16.0669 43.5115 16.3117C43.7673 16.611 43.8598 16.6328 45.008 16.6328C45.9604 16.6328 46.0747 16.6219 46.2379 16.524C46.4991 16.3662 46.6297 16.1158 46.6297 15.773C46.6297 15.5118 46.608 15.4628 46.4175 15.256L46.1998 15.0274L45.0407 15.0111C43.9469 15.0002 43.8707 15.0057 43.7074 15.1091Z" fill="#E24C55"/>
<path d="M3.68706 46.8027C3.30068 47.0694 3.21905 47.6299 3.51292 47.9836C3.76869 48.2829 3.8612 48.3047 4.98224 48.3047C5.8475 48.3047 6.03253 48.2884 6.19579 48.2067C6.47877 48.0652 6.63114 47.804 6.63114 47.4449C6.63114 47.1673 6.61482 47.1347 6.3917 46.9116L6.15769 46.6721H5.02033C3.89929 46.6721 3.87752 46.6721 3.68706 46.8027Z" fill="#E24C55"/>
<path d="M8.71031 46.781C8.60148 46.8517 8.48719 46.9877 8.41645 47.1456C8.23687 47.5537 8.35115 47.9074 8.75385 48.1795C8.92255 48.2992 8.98241 48.3047 9.97284 48.3047C10.8544 48.3047 11.0395 48.2884 11.2027 48.2067C11.7251 47.9455 11.7904 47.2598 11.3388 46.8354C11.1973 46.6993 11.1864 46.6993 10.0436 46.683C8.96064 46.6721 8.87901 46.6776 8.71031 46.781Z" fill="#E24C55"/>
<path d="M13.7016 46.7973C13.3425 47.0367 13.2282 47.4938 13.4404 47.8693C13.6581 48.2557 13.8268 48.3047 14.9859 48.3047C15.8131 48.3047 16.0362 48.2884 16.1886 48.2176C16.76 47.9455 16.7981 47.1129 16.2539 46.781C16.0907 46.683 15.9764 46.6721 14.9805 46.6721C13.9357 46.6721 13.8758 46.6776 13.7016 46.7973Z" fill="#E24C55"/>
<path d="M18.7085 46.7962C18.1861 47.1444 18.235 47.9498 18.7901 48.2165C19.0622 48.3471 20.9233 48.3471 21.1954 48.2165C21.7505 47.9498 21.7995 47.1444 21.2771 46.7962C21.0975 46.6764 21.0431 46.671 19.9928 46.671C18.9425 46.671 18.8881 46.6764 18.7085 46.7962Z" fill="#E24C55"/>
<path d="M23.7303 46.781C23.1862 47.1129 23.2242 47.9455 23.7956 48.2176C23.948 48.2884 24.1711 48.3047 24.9929 48.3047C26.1629 48.3047 26.3207 48.2612 26.5384 47.8802C26.7561 47.4938 26.6472 47.0422 26.2826 46.7973C26.1085 46.6776 26.0486 46.6721 25.0038 46.6721C24.0079 46.6721 23.8936 46.683 23.7303 46.781Z" fill="#E24C55"/>
<path d="M28.7367 46.781C28.1925 47.1129 28.2197 47.9292 28.7802 48.2067C28.9435 48.2884 29.1285 48.3047 29.9992 48.3047C30.9515 48.3047 31.0386 48.2938 31.2345 48.185C31.4685 48.0544 31.6644 47.7224 31.6644 47.4558C31.6644 47.2326 31.4957 46.9388 31.2835 46.7918C31.1148 46.6776 31.0549 46.6721 30.0101 46.6721C29.0142 46.6721 28.8999 46.683 28.7367 46.781Z" fill="#E24C55"/>
<path d="M33.591 46.9116C33.3679 47.1347 33.3516 47.1673 33.3516 47.4449C33.3516 47.804 33.5039 48.0652 33.7869 48.2067C33.9502 48.2884 34.1352 48.3047 35.0005 48.3047C36.1215 48.3047 36.214 48.2829 36.4698 47.9836C36.7691 47.6245 36.6766 47.0367 36.2793 46.7918C36.0997 46.6776 36.0181 46.6721 34.9569 46.6721H33.825L33.591 46.9116Z" fill="#E24C55"/>
<path d="M38.715 46.7755C38.3177 47.0422 38.2089 47.5864 38.4864 47.9455C38.7422 48.2829 38.8293 48.3047 40.0047 48.3047C41.0115 48.3047 41.0713 48.2992 41.24 48.1795C41.757 47.8312 41.7679 47.0911 41.2618 46.7755C41.1094 46.683 40.9843 46.6721 39.983 46.6721C38.9816 46.6721 38.8565 46.683 38.715 46.7755Z" fill="#E24C55"/>
<path d="M43.6832 46.8027C43.2968 47.0694 43.2151 47.6299 43.509 47.9836C43.7648 48.2829 43.8573 48.3047 44.9783 48.3047C45.8436 48.3047 46.0286 48.2884 46.1919 48.2067C46.4749 48.0652 46.6272 47.804 46.6272 47.4449C46.6272 47.1673 46.6109 47.1347 46.3878 46.9116L46.1538 46.6721H45.0164C43.8954 46.6721 43.8736 46.6721 43.6832 46.8027Z" fill="#E24C55"/>
<path d="M37.9608 30.0196C37.4275 30.1557 36.9159 30.6183 36.7472 31.1189C36.5459 31.7284 36.7472 32.4576 37.2424 32.893C37.89 33.4644 38.9675 33.41 39.5389 32.7787C39.8546 32.4304 39.9634 32.1257 39.958 31.625C39.958 31.1026 39.811 30.7598 39.4464 30.4332C39.0383 30.0632 38.4451 29.8999 37.9608 30.0196Z" fill="#E24C55"/>
</svg>
