<svg width="59" height="59" viewBox="0 0 59 59" fill="none" xmlns="http://www.w3.org/2000/svg">
<path d="M28.2253 0.0916462C26.779 0.443623 25.4607 1.59555 24.9039 2.99705C24.3728 4.34736 24.4432 5.69128 25.1279 7.16958C25.3647 7.67514 25.3775 7.74554 25.2943 7.84793C25.2431 7.90553 23.7904 9.56942 22.0689 11.5405C19.1123 14.9259 17.3972 16.9097 16.8341 17.6073C16.5077 18.0105 16.4565 18.4008 16.6677 18.836C16.8277 19.1688 17.2372 19.476 17.5956 19.5464C18.05 19.6296 18.6259 19.1304 20.5202 17.0057C21.3906 16.0202 26.4398 10.2478 27.0414 9.53742L27.2718 9.26224L27.7773 9.42863C28.8525 9.76781 29.9276 9.77421 31.0283 9.43503L31.5403 9.27504L31.7643 9.54382C31.8923 9.69101 32.385 10.2542 32.8586 10.8045C33.3386 11.3485 34.5353 12.718 35.5144 13.8443C40.0709 19.0728 40.6469 19.6488 41.1973 19.5464C41.9844 19.3992 42.4964 18.4904 42.1572 17.8633C42.0164 17.6137 40.4101 15.7386 36.5448 11.3165C34.9321 9.46703 33.5626 7.90553 33.5114 7.84153C33.4218 7.73914 33.441 7.68154 33.6778 7.16958C34.0489 6.36963 34.2089 5.80647 34.2473 5.10891C34.3305 3.68821 33.7993 2.3379 32.7818 1.35876C32.0907 0.693207 31.3099 0.277233 30.3692 0.078846C29.8316 -0.0299454 28.7181 -0.0299454 28.2253 0.0916462ZM29.934 2.45309C30.7211 2.65788 31.2587 3.09305 31.5851 3.7906C32.1675 5.03212 31.6299 6.49762 30.3692 7.08638C30.062 7.22717 29.9276 7.25277 29.4028 7.25277C28.9037 7.25277 28.7373 7.22717 28.4813 7.10558C27.2462 6.53602 26.6766 5.16011 27.1566 3.89939C27.3998 3.24664 27.9885 2.72187 28.7501 2.47869C29.2044 2.3379 29.4604 2.3315 29.934 2.45309Z" fill="#E24C55"/>
<path d="M10.6201 22.0739C3.05585 22.1187 3.715 22.0739 2.62068 22.6307C2.15351 22.8675 1.92952 23.0402 1.43036 23.5394C0.89919 24.0642 0.777598 24.2306 0.521615 24.7553C0.361626 25.0881 0.176038 25.5489 0.118442 25.7793C-0.0351477 26.3488 -0.0415473 27.5263 0.112043 28.0831C0.240034 28.5695 0.579212 29.3118 0.847994 29.6958C1.38556 30.4765 2.2751 31.1613 3.24144 31.5325C3.7086 31.7117 3.7982 31.7693 3.8302 31.9165C3.93259 32.3964 5.19971 38.636 5.46849 39.9863C6.92119 47.2882 7.99632 52.4847 8.3099 53.7454C8.68107 55.2365 8.87306 55.5181 9.833 56.0557L10.3642 56.3564L25.6527 56.3948L40.9477 56.4268L41.4917 56.8044C42.5284 57.5212 44.0579 58.2123 45.325 58.5323C45.9842 58.6987 46.0674 58.7051 47.7377 58.7051C49.1776 58.7051 49.5552 58.6859 50.0095 58.5835C52.3326 58.0779 54.4828 56.8364 56.0251 55.1149C57.1643 53.8414 58.1306 51.9919 58.521 50.3408C58.9369 48.5682 58.8409 46.0659 58.2906 44.402C58.0538 43.6789 57.2283 42.079 56.7483 41.3942C56.2299 40.6647 55.046 39.4616 54.2972 38.8984C53.9965 38.6744 53.7277 38.476 53.7021 38.4504C53.6701 38.4248 53.8237 37.5417 54.0413 36.4922C54.8988 32.326 55.014 31.7629 55.0204 31.7565C55.0268 31.7565 55.2764 31.6541 55.5772 31.5325C57.337 30.8221 58.4826 29.427 58.777 27.6351C58.9369 26.6624 58.6746 25.3697 58.1306 24.4609C57.6954 23.7314 56.8187 22.9187 56.0571 22.5283C55.4428 22.2147 55.0716 22.1443 53.7917 22.0995C52.275 22.0419 19.7715 22.0227 10.6201 22.0739ZM51.2575 24.4929L54.6492 24.5313L54.9884 24.7233C56.0571 25.3057 56.6139 26.496 56.3131 27.5455C56.1019 28.2815 55.6732 28.7679 54.8924 29.1646L54.4956 29.363H29.3965H4.30376L3.85579 29.1262C3.30543 28.8383 2.84466 28.3839 2.60788 27.8975C2.44789 27.5839 2.42869 27.4688 2.43509 26.9632C2.43509 26.4896 2.46709 26.3232 2.60148 26.0352C2.78707 25.6257 3.13904 25.1841 3.48462 24.9345C4.01578 24.5441 3.94539 24.5505 7.99632 24.4993C12.9624 24.4417 46.9761 24.4354 51.2575 24.4929ZM51.5646 31.8397L52.4542 31.8653L52.4094 32.134C52.2878 32.9084 51.411 37.2025 51.3726 37.2409C51.3406 37.2601 50.9631 37.1961 50.5215 37.0873C49.728 36.8953 49.7088 36.8953 47.8017 36.8889L45.8818 36.8825L45.2482 37.0617C43.9299 37.4393 42.4708 38.0856 41.5685 38.7064C40.8005 39.2248 39.1943 40.8311 38.7015 41.5798C38.0551 42.5462 37.3704 44.1268 37.044 45.394C36.8648 46.0787 36.8584 46.1491 36.8584 47.6658C36.8648 49.3489 36.9224 49.9057 37.1912 50.7696C37.3768 51.3712 37.7991 52.3695 38.2407 53.2462L38.5543 53.8734H24.6672C13.6151 53.8734 10.7673 53.8542 10.7481 53.7966C10.7289 53.7518 10.313 51.7103 9.8202 49.2657C8.39949 42.2006 6.838 34.4827 6.59481 33.2988C6.46682 32.7036 6.36443 32.134 6.36443 32.038V31.8653L7.34356 31.8461C8.80267 31.8141 50.5407 31.8141 51.5646 31.8397ZM49.0816 39.3208C52.3518 39.8519 54.95 42.0598 55.9931 45.1892C56.2683 46.0147 56.3451 46.5971 56.3451 47.7938C56.3451 48.9905 56.2683 49.5729 55.9931 50.392C55.4236 52.1135 54.342 53.6046 52.8765 54.7117C52.2366 55.1853 50.8927 55.8573 50.1247 56.0749C48.9024 56.4268 46.7713 56.4268 45.5682 56.0813C44.8771 55.8829 43.8659 55.4413 43.4116 55.1341C43.2068 54.9997 42.9572 54.7565 42.8356 54.5774C42.6628 54.315 42.522 54.2062 42.1445 54.0142C41.4277 53.6558 40.7685 52.8431 40.0902 51.4992C38.9319 49.2145 38.9511 46.3347 40.135 43.9861C40.9157 42.4246 41.9333 41.3238 43.418 40.4471C44.6275 39.7303 45.7986 39.3592 47.3857 39.1928C47.7121 39.1608 48.4224 39.212 49.0816 39.3208Z" fill="#E24C55"/>
<path d="M18.3004 36.774C17.6988 36.8828 17.3596 37.158 17.2316 37.638C17.1676 37.9004 17.1484 39.0139 17.1484 43.116V48.2549L17.4876 48.5685C18.1276 49.1572 18.7163 49.1316 19.3435 48.4789L19.5547 48.2613L19.5931 43.628C19.6251 38.5403 19.5931 37.6956 19.3563 37.3436C19.1067 36.9788 18.6139 36.71 18.3004 36.774Z" fill="#E24C55"/>
<path d="M25.3779 36.851C24.7827 37.0494 24.6355 37.2734 24.5331 38.1693C24.4371 38.9948 24.4947 47.3719 24.6035 47.9862C24.6931 48.4982 24.7891 48.6518 25.1283 48.8246C25.653 49.0934 26.2418 48.959 26.7154 48.4726L26.9394 48.2358V43.0074V37.7789L26.7858 37.4717C26.5106 36.9086 25.941 36.659 25.3779 36.851Z" fill="#E24C55"/>
<path d="M32.7388 36.8509C32.1372 37.0493 31.99 37.2797 31.9005 38.1756C31.8301 38.854 31.8301 44.6712 31.9005 46.8407C31.9516 48.3766 32.0028 48.5557 32.4636 48.8117C32.9948 49.0997 33.5963 48.9717 34.0763 48.4662L34.3003 48.2358V43.0073V37.7789L34.1467 37.4717C33.8715 36.9085 33.302 36.6589 32.7388 36.8509Z" fill="#E24C55"/>
<path d="M51.6412 44.2218C51.5708 44.2602 50.4637 45.3353 49.1774 46.6088C47.8911 47.8823 46.7776 48.9574 46.7008 48.9958C46.5792 49.0662 46.4768 48.983 45.5808 48.1319C44.0129 46.6408 43.757 46.4744 43.2258 46.6344C42.4322 46.8712 42.0995 47.7159 42.5282 48.4071C42.7394 48.7527 45.2289 51.2421 45.8112 51.6965C46.144 51.9524 46.2272 51.9844 46.592 52.0036C46.9631 52.0292 47.0207 52.0164 47.2639 51.8373C48.0063 51.2869 52.9596 46.2888 53.1899 45.8537C53.3115 45.6169 53.3115 45.0409 53.1835 44.7977C52.9212 44.2922 52.0764 43.9786 51.6412 44.2218Z" fill="#E24C55"/>
</svg>
