<svg width="61" height="66" viewBox="0 0 61 66" fill="none" xmlns="http://www.w3.org/2000/svg">
<path d="M25.6005 0.109535C24.9057 0.299011 24.3373 0.72007 23.6531 1.54114C21.1056 4.60435 18.453 6.27806 14.3897 7.39388C11.6002 8.15178 9.26332 8.436 4.78956 8.54126C1.56845 8.62548 1.32634 8.65705 0.757908 9.20443C0.589484 9.36233 0.347375 9.67813 0.231583 9.90971L0 10.3308V22.1205C0.0105265 34.8259 0.0105265 34.9417 0.578958 37.7839C1.85266 44.0893 5.25273 50.0788 9.91597 54.2368C10.7055 54.9316 19.1898 61.5843 22.1057 63.7844C24.2741 65.437 27.4636 65.6896 29.99 64.437C30.4321 64.2159 31.8111 63.237 33.3059 62.0685C34.7269 60.9632 35.8954 60.0685 35.9059 60.0685C35.927 60.0685 35.8112 60.3422 35.6638 60.6685C34.9375 62.258 35.6217 64.1001 37.2322 64.9002L37.8744 65.2265H47.6956C57.2852 65.2265 57.5379 65.2265 58.0853 65.016C59.6326 64.437 60.5063 62.5843 60.0011 60.9632C59.8011 60.3317 59.0642 59.4053 58.5379 59.1316L58.2642 58.9843V47.2893V35.5944L58.6853 35.3523C59.2326 35.047 59.8011 34.2786 60.0116 33.5522C60.5063 31.9101 59.6116 30.1522 57.9905 29.5416C57.4326 29.3416 57.1905 29.3311 51.5799 29.3311H45.7377V23.2994C45.7377 17.6151 45.7271 17.2572 45.5377 16.8361C45.2008 16.0993 44.7692 15.8993 42.9481 15.6467C37.4428 14.8677 32.9585 13.4466 29.0637 11.2255C26.8531 9.96234 26.3268 9.97287 23.9162 11.3097C21.6425 12.5624 20.274 13.1519 17.8424 13.9414C15.4213 14.7203 12.695 15.3309 9.92649 15.6888C8.48436 15.8782 8.15804 16.0151 7.75803 16.6151L7.47382 17.0572V21.4468C7.47382 25.7521 7.47382 25.8574 7.69487 26.0679C7.81067 26.1837 8.08436 26.31 8.29489 26.3521C8.62121 26.4047 8.71595 26.3626 9.00016 26.0889L9.31596 25.7731V21.7204V17.6783L10.6107 17.4993C16.2213 16.7098 21.032 15.1624 25.032 12.8677C26.5794 11.9729 26.6005 11.9834 28.4005 13.0045C32.2743 15.2256 37.9796 16.9835 43.2429 17.6046L43.8429 17.6677V23.4994V29.3311H41.0218C37.8007 29.3311 37.4533 29.3943 36.5901 30.068C35.8322 30.668 35.3901 31.6048 35.3901 32.6259C35.3901 33.7838 35.9691 34.8365 36.9586 35.447L37.3165 35.6681V46.1104V56.5632L33.6743 59.3948C31.6637 60.9527 29.7584 62.3843 29.4321 62.5738C27.7794 63.5317 25.7057 63.6054 24.011 62.7633C23.3583 62.437 12.6108 54.1 11.2107 52.8368C8.31594 50.2157 5.76852 46.7104 4.31587 43.3314C2.90532 40.0681 2.17899 37.026 1.9474 33.4259C1.78951 30.9522 1.84214 10.7624 2.01056 10.5939C2.08425 10.5202 3.35795 10.4466 5.58957 10.3834C10.6844 10.236 13.1476 9.85708 16.5266 8.69916C20.0004 7.49914 22.6846 5.69911 24.7268 3.18327C25.5584 2.17273 25.9899 1.85693 26.5584 1.85693C27.211 1.85693 27.5058 2.06746 28.4742 3.22538C29.6426 4.6254 30.4216 5.34121 31.8321 6.28859C33.7901 7.6044 36.0849 8.61495 38.6217 9.27812C41.6639 10.0676 43.2429 10.2571 47.5798 10.3834C50.6641 10.4781 51.0641 10.5097 51.1799 10.6676C51.2851 10.8045 51.3167 12.5098 51.3167 18.3309V25.8258L51.5588 26.0468C51.9167 26.3837 52.5694 26.3626 52.9062 26.0047L53.1588 25.731V18.0362C53.1588 10.3413 53.1588 10.3308 52.9273 9.90971C52.8115 9.67813 52.5694 9.36233 52.4009 9.20443C51.843 8.66758 51.5799 8.62548 48.5272 8.55179C44.1797 8.44653 41.9586 8.19389 39.2639 7.49914C35.0533 6.40438 31.8427 4.49909 29.79 1.85693C29.1795 1.06744 28.5479 0.509544 27.9584 0.246376C27.3584 -0.0167847 26.2742 -0.0799408 25.6005 0.109535ZM57.601 31.4364C58.58 32.0259 58.4326 33.4575 57.3484 33.9207C57.0642 34.047 55.3694 34.068 47.8219 34.068C41.8008 34.068 38.4954 34.0259 38.2428 33.9628C37.8217 33.8364 37.3901 33.3733 37.2849 32.8996C37.148 32.3522 37.5691 31.5522 38.1059 31.3311C38.2217 31.2785 42.5797 31.2364 47.7903 31.2364C57.0115 31.2259 57.2747 31.2364 57.601 31.4364ZM54.6641 37.7207C54.601 39.6366 54.4431 40.5524 53.9483 41.7524C53.1483 43.6893 51.4851 45.4156 49.8641 45.984C49.5377 46.0998 49.1693 46.2577 49.043 46.3314C48.5482 46.6472 48.4535 47.6156 48.8956 48.0156C49.0009 48.1104 49.4009 48.3104 49.7798 48.4472C51.8746 49.2051 53.5378 51.1736 54.3273 53.8263C54.5799 54.6684 54.601 54.9316 54.622 56.7L54.6326 58.6474L47.7693 58.679L40.8955 58.7001V56.9632C40.8955 55.0052 41.0428 54.0579 41.5376 52.8263C41.885 51.9526 42.5481 50.8894 43.2008 50.1525C43.7692 49.5104 45.0534 48.6578 45.8008 48.4157C46.6114 48.163 46.8956 47.8578 46.8956 47.2367C46.8956 46.6262 46.5798 46.2893 45.7903 46.0261C43.5903 45.3103 41.6429 42.8577 41.0534 40.0681C40.9481 39.5839 40.8955 38.7313 40.8955 37.6365V35.9628H47.8009H54.7168L54.6641 37.7207ZM56.3589 47.2472V53.9105L56.0642 53.0157C55.6431 51.7526 55.3905 51.2157 54.7483 50.2262C54.1168 49.2578 52.9694 48.0578 52.2325 47.5841C51.9588 47.4156 51.7378 47.2577 51.7378 47.2262C51.7378 47.1946 51.9378 47.0577 52.1799 46.9104C52.8852 46.4788 54.1062 45.2156 54.7483 44.2261C55.3484 43.2998 55.9378 42.005 56.18 41.0892C56.2431 40.8155 56.3168 40.5945 56.3379 40.5945C56.3589 40.5945 56.3694 43.5945 56.3589 47.2472ZM40.0639 43.0261L40.2849 43.4577L39.8955 44.0261C39.1902 45.0366 39.2112 45.0682 39.2112 42.7945V40.7524L39.527 41.6787C39.6954 42.184 39.9376 42.7945 40.0639 43.0261ZM42.106 45.8577C42.4534 46.2156 42.9587 46.6472 43.2429 46.8262C43.5166 46.9946 43.7376 47.1841 43.7376 47.2262C43.7376 47.2683 43.5376 47.4367 43.2955 47.5946C41.706 48.6472 40.1586 50.8052 39.4639 52.9526L39.2218 53.7V50.7525L39.2112 47.8051L39.906 47.0156C40.2849 46.584 40.7691 46.0051 40.9797 45.7209C41.1902 45.4472 41.3902 45.2261 41.4218 45.2261C41.4534 45.2261 41.7586 45.5103 42.106 45.8577ZM57.5273 60.7317C57.9168 60.9211 58.2642 61.5106 58.2642 61.9633C58.2642 62.4159 57.9168 63.0054 57.5273 63.1949C57.3168 63.3001 55.1484 63.3317 47.7377 63.3317C38.5375 63.3317 38.2007 63.3212 37.8849 63.1317C37.4217 62.8475 37.148 62.1106 37.3059 61.6264C37.4533 61.2054 37.6007 61.0159 37.948 60.7738C38.1902 60.6053 38.927 60.5948 47.7377 60.5948C55.1484 60.5948 57.3168 60.6264 57.5273 60.7317Z" fill="#E24C55"/>
<path d="M26.0944 5.2677C24.8207 5.8256 25.1891 7.75195 26.5786 7.75195C27.3154 7.75195 27.8418 7.19405 27.8418 6.40456C27.8418 5.90982 27.5365 5.47823 27.0418 5.2677C26.6102 5.08875 26.5154 5.08875 26.0944 5.2677Z" fill="#E24C55"/>
<path d="M4.71642 13.0673C4.08483 13.341 3.76903 14.1936 4.08483 14.8042C4.26378 15.1621 4.86379 15.541 5.25327 15.541C5.99012 15.541 6.67435 14.7305 6.51645 14.0357C6.41118 13.5515 6.20065 13.2673 5.79012 13.0778C5.36906 12.8778 5.15853 12.8673 4.71642 13.0673Z" fill="#E24C55"/>
<path d="M47.2633 13.057C46.7896 13.2675 46.558 13.5833 46.5054 14.0886C46.4527 14.636 46.6211 14.9833 47.0948 15.2991C47.758 15.7518 48.5791 15.5097 48.937 14.7623C49.2422 14.1202 48.9686 13.3833 48.3159 13.078C47.8949 12.878 47.6843 12.8675 47.2633 13.057Z" fill="#E24C55"/>
<path d="M33.6332 19.5723C33.3595 19.646 32.9805 19.8144 32.7805 19.9408C32.5384 20.0881 30.6121 22.4566 27.3594 26.583C24.5909 30.1199 22.2751 32.9936 22.2119 32.9726C22.1593 32.962 21.0435 31.5515 19.7277 29.8462C17.4855 26.9198 17.3171 26.7303 16.7381 26.4356C16.2224 26.1724 16.0013 26.1198 15.4329 26.1303C14.6118 26.1409 14.1276 26.3303 13.5276 26.8672C12.8433 27.4883 12.6328 27.9725 12.6328 28.962C12.6328 29.583 12.6854 29.8988 12.8328 30.1725C13.0328 30.5409 19.054 38.4779 19.9172 39.5095C20.5487 40.2674 21.2435 40.5938 22.2014 40.5938C22.9698 40.5938 23.5277 40.4043 24.0225 39.9937C24.3593 39.7095 36.6648 24.0882 36.928 23.5934C37.2543 22.9934 37.2543 21.6671 36.928 21.0566C36.6648 20.5513 35.9595 19.8986 35.4859 19.6986C34.9595 19.4776 34.1595 19.425 33.6332 19.5723ZM35.0858 21.7092C35.5911 22.2882 35.528 22.4145 33.0121 25.6145C23.7067 37.4463 22.833 38.5306 22.5277 38.6569C21.8435 38.9306 21.8014 38.8885 18.0013 33.9305C14.9381 29.9199 14.475 29.2672 14.475 28.9514C14.475 28.2883 15.2223 27.804 15.8118 28.0883C15.9908 28.1725 17.1066 29.5409 18.7592 31.6989C20.2224 33.6147 21.5172 35.2568 21.6435 35.3516C21.9067 35.5726 22.4646 35.5937 22.7277 35.4042C22.833 35.3305 25.3383 32.1936 28.3068 28.4356C31.2647 24.6672 33.8121 21.5303 33.949 21.4566C34.3069 21.2776 34.7911 21.3829 35.0858 21.7092Z" fill="#E24C55"/>
<path d="M7.94626 29.1515C7.44099 29.4041 7.39888 29.6252 7.46204 31.9094C7.5252 34.2779 7.69363 35.6042 8.20943 37.5937C8.99891 40.6675 10.4621 43.5833 12.4727 46.1202C13.8516 47.8571 15.1464 48.9834 20.4623 53.1098C23.3044 55.3204 25.7466 57.173 25.894 57.2257C26.294 57.373 26.9571 57.352 27.3466 57.1836C27.5361 57.0993 29.3361 55.7309 31.3572 54.1519C34.1046 52.0045 35.0625 51.2045 35.1362 50.9729C35.3362 50.3519 34.6625 49.6255 34.0309 49.794C33.8941 49.8255 32.1783 51.1098 30.2098 52.6466C28.2414 54.173 26.5992 55.4256 26.5571 55.4046C26.5045 55.3941 24.336 53.7203 21.7149 51.6993C16.8938 47.9623 15.2517 46.5413 14.0201 45.0149C12.199 42.7622 10.7568 39.9201 10.041 37.1727C9.55682 35.3095 9.40945 34.1621 9.34629 31.8042L9.28313 29.6041L8.98839 29.3094C8.67259 28.9936 8.3568 28.9409 7.94626 29.1515Z" fill="#E24C55"/>
<path d="M26.0929 58.8059C25.3561 59.1007 25.0719 60.1849 25.5771 60.7849C26.1456 61.4586 26.9561 61.4902 27.514 60.8481C28.0825 60.2165 27.9035 59.2164 27.1667 58.8691C26.7772 58.6901 26.4403 58.6691 26.0929 58.8059Z" fill="#E24C55"/>
</svg>
