<svg width="64" height="72" viewBox="0 0 64 72" fill="none" xmlns="http://www.w3.org/2000/svg">
<path d="M30.5057 0.138626C29.9399 0.342674 29.7266 0.491074 28.2333 1.69682C25.9609 3.53326 25.6827 3.75586 25.4786 3.85789C25.2004 4.01556 24.7552 3.99701 23.5123 3.79296C20.6185 3.31994 19.7281 3.20863 19.1253 3.24574C18.2905 3.31066 17.6227 3.64456 16.992 4.32163C16.5376 4.81321 16.4448 5.00798 15.7677 6.75167C15.3689 7.79974 14.9144 8.97766 14.7568 9.37649C14.6084 9.76604 14.3858 10.1927 14.2652 10.3133C14.1446 10.4338 13.6345 10.675 13.1429 10.8605C11.3992 11.4912 9.54423 12.2239 9.06193 12.4651C8.43123 12.7804 7.88401 13.3462 7.55011 14.0325C7.13274 14.8765 7.11419 15.3496 7.43881 17.3251C7.99531 20.7198 8.04169 21.0815 7.88401 21.4247C7.80981 21.5916 7.03999 22.5933 6.17742 23.6599C5.30557 24.7173 4.50792 25.719 4.4059 25.8859C4.09983 26.3868 3.90505 27.305 3.96998 27.9357C4.08128 28.9838 4.24822 29.2435 7.05854 32.6567C8.09734 33.9088 8.06951 33.7975 7.82836 35.402C7.71706 36.144 7.52229 37.3776 7.39244 38.1474C7.13274 39.7335 7.15129 40.3641 7.49446 41.1154C7.89329 41.9873 8.67238 42.6643 9.71118 43.0539C9.95233 43.1466 10.1471 43.2301 10.1471 43.2394C10.1471 43.2672 10.0173 43.4991 8.15299 46.7268C7.55011 47.7748 6.45567 49.6669 5.71367 50.9469C4.98095 52.2176 3.89578 54.1004 3.30218 55.1206C-0.166659 61.1308 0.0188406 60.7969 0.000290687 61.1957C-0.00898428 61.576 0.20434 61.9563 0.547514 62.1789C0.770113 62.3273 1.10401 62.3273 5.30557 62.1789C7.79126 62.0954 10.1193 62.0305 10.4903 62.0305H11.1488L11.7795 63.2084C12.1227 63.8669 12.6977 64.9614 13.0687 65.6477C13.4304 66.3341 14.2281 67.8273 14.831 68.9589C15.5173 70.2574 16.0089 71.0828 16.1573 71.1756C16.8158 71.6115 17.4929 71.3518 17.9844 70.4707C18.3091 69.9049 19.1995 68.356 21.7872 63.8855C23.7442 60.5094 25.8682 56.8179 27.0275 54.796C27.4542 54.054 27.8345 53.414 27.8716 53.3677C27.9087 53.3213 28.3817 53.6459 28.9196 54.0725C30.3109 55.1855 31.2291 55.4638 32.4534 55.1299C33.1026 54.9629 33.3531 54.8145 34.3455 54.0169C34.8278 53.6273 35.2452 53.312 35.273 53.312C35.3101 53.312 35.9222 54.3508 36.6364 55.6122C37.3599 56.8736 38.3523 58.5895 38.8346 59.4335C39.3261 60.2775 41.0327 63.2362 42.6373 66.0187C45.1137 70.2945 45.6053 71.0921 45.865 71.2405C46.2731 71.4631 46.8203 71.3982 47.1264 71.1014C47.3304 70.8881 48.5084 68.7363 50.8364 64.3028C51.43 63.1806 51.9679 62.1974 52.0421 62.1139C52.107 62.0305 52.2647 61.9748 52.376 61.9934C52.4873 62.0119 54.7597 62.0954 57.4216 62.1789C62.7454 62.3458 62.6898 62.3551 63.0237 61.8079C63.3669 61.2421 63.2927 61.0102 62.0313 58.8213C61.382 57.7083 60.3803 55.9554 59.7867 54.9351C59.2024 53.9149 58.5068 52.6999 58.2378 52.2454C57.4958 50.984 53.6096 44.2411 53.3221 43.7217C53.1829 43.4805 53.1087 43.2487 53.1551 43.2116C53.1922 43.1745 53.5168 43.0261 53.86 42.8777C54.6484 42.553 55.3255 41.9223 55.6686 41.1896C56.0675 40.327 56.0582 39.5943 55.6037 36.886C55.1771 34.3354 55.1585 33.983 55.3904 33.6305C55.4739 33.5007 56.2159 32.5639 57.0321 31.5622C58.7572 29.4475 58.9798 29.1229 59.1282 28.52C59.2766 27.8893 59.1931 26.7392 58.9613 26.2291C58.8592 25.9972 57.9688 24.8193 56.995 23.6136C55.4275 21.6565 55.2234 21.369 55.2234 21.0722C55.2234 20.8867 55.3904 19.6624 55.6037 18.3547C56.0675 15.4145 56.0675 14.8023 55.5944 13.9119C55.4182 13.578 55.0843 13.1514 54.8339 12.9288C54.3701 12.5207 54.3701 12.5207 50.3912 10.9811C49.6399 10.6935 48.9628 10.3782 48.8794 10.2854C48.731 10.1278 48.3692 9.23737 47.3026 6.42705C46.5606 4.47931 46.069 3.86716 44.8726 3.41269C44.1491 3.14371 43.537 3.17154 40.9122 3.59818C39.6415 3.80224 38.4265 3.96918 38.1946 3.96918C37.7587 3.96918 37.87 4.05266 34.1507 1.02902C33.1583 0.231377 32.7316 0.0458755 31.7578 0.0087738C31.1735 -0.0190506 30.8488 0.0180511 30.5057 0.138626ZM31.9804 2.29969C32.1102 2.34606 33.149 3.14371 34.2806 4.07121C35.4214 4.9987 36.5808 5.86127 36.859 6.0004C37.601 6.35285 38.5471 6.31575 41.4408 5.83345C43.9265 5.41608 44.1306 5.41608 44.5387 5.85201C44.6407 5.9633 45.0859 6.99282 45.5218 8.14292C46.811 11.5097 46.9594 11.7787 47.7849 12.2981C48.1466 12.53 49.9182 13.2534 52.747 14.3108C53.2108 14.487 53.6096 14.8673 53.7023 15.2383C53.758 15.4516 53.7023 15.8504 53.1273 19.3656C52.849 21.0537 52.8769 21.5731 53.2664 22.4264C53.3684 22.6582 54.2217 23.7991 55.1771 24.9584C56.1231 26.1271 56.9208 27.1844 56.9486 27.305C57.0506 27.7224 56.8929 28.1305 56.3643 28.7797C53.1829 32.6938 53.0716 32.8607 52.9418 33.8067C52.9047 34.1221 53.016 35.0589 53.3313 37.0715L53.7673 39.9004L53.591 40.225C53.3684 40.6424 53.1087 40.7722 50.7251 41.6719C48.2301 42.6087 47.5901 42.9426 47.0986 43.5362C46.709 44.0278 46.6255 44.2225 45.3456 47.5615C45.0024 48.4519 44.6407 49.2774 44.5294 49.398C44.1677 49.7875 43.9173 49.7875 41.4872 49.3887C39.9939 49.1383 38.9088 49.0084 38.2966 49.0084C37.4248 48.9991 37.332 49.0177 36.7663 49.3052C36.4138 49.4814 35.3472 50.2791 34.1693 51.2344C33.0748 52.1341 32.0731 52.9039 31.9433 52.9596C31.4795 53.1358 31.1549 52.9688 29.5596 51.6703C28.697 50.9747 27.7232 50.1863 27.3893 49.9174C26.0908 48.86 25.5528 48.7858 22.5292 49.2681C21.3513 49.4629 20.1733 49.6484 19.8951 49.6948C19.487 49.769 19.3293 49.7597 19.0047 49.6113C18.5409 49.4072 18.5873 49.5 17.4836 46.5969C16.4819 44.0092 16.3984 43.8237 15.9254 43.36C15.406 42.8313 15.0443 42.6551 12.605 41.7183C9.85958 40.6702 9.8503 40.6702 9.64626 40.3178C9.41438 39.9282 9.43293 39.6871 9.85958 37.0901C10.2677 34.6229 10.3141 33.9366 10.1007 33.2132C9.93378 32.6567 9.58133 32.1558 7.69851 29.8556C6.37219 28.2139 6.30727 28.1212 6.27017 27.6667L6.23307 27.1937L7.55939 25.5428C9.65553 22.955 9.94305 22.5562 10.1007 22.0368C10.3048 21.3226 10.277 20.6456 9.90595 18.4381C9.45148 15.6927 9.42366 15.1919 9.67408 14.8394C9.8874 14.5334 10.0544 14.4592 13.0223 13.3276C16.2964 12.0755 16.0924 12.3167 17.9102 7.49367C18.5038 5.91692 18.5873 5.75925 19.0232 5.58303C19.3757 5.42535 19.2366 5.41608 22.9466 6.00967C24.9963 6.34357 25.5435 6.3343 26.3226 5.98185C26.6102 5.84273 27.7232 5.02653 28.9567 4.03411C30.1254 3.08807 31.1642 2.29969 31.2569 2.27187C31.5537 2.19766 31.7392 2.20694 31.9804 2.29969ZM13.1986 44.3709C14.4507 44.8532 14.3301 44.6863 15.2947 47.2369C16.6303 50.7428 16.8344 51.086 18.0123 51.6611C18.578 51.9393 18.6893 51.9671 19.5148 51.9579C20.0064 51.9486 21.0359 51.8373 21.8336 51.6982C24.783 51.1973 25.052 51.1602 25.3859 51.3086C25.5435 51.3828 25.7847 51.5219 25.9053 51.624L26.1279 51.8002L25.6641 52.6257C25.4044 53.0801 23.8091 55.8533 22.1118 58.7842C20.4145 61.7151 18.5502 64.9521 17.9566 65.9723C17.3723 66.9926 16.8807 67.8366 16.8715 67.8551C16.8436 67.883 16.2408 66.77 14.0426 62.6612C13.2171 61.0937 12.6235 60.092 12.4473 59.9436C12.1134 59.6654 12.0763 59.6654 6.85449 59.8509C4.86965 59.9158 3.22798 59.9622 3.20015 59.9436C3.16305 59.8972 3.42275 59.4335 6.51132 54.1004C7.34606 52.6628 9.06193 49.6948 10.9448 46.4207C11.9928 44.6028 12.3545 44.0463 12.4658 44.0927C12.54 44.1205 12.8739 44.2504 13.1986 44.3709ZM51.801 45.6509C52.1812 46.3187 52.8119 47.4038 53.2015 48.0716C54.0919 49.602 58.5717 57.3652 59.4064 58.8213C59.7589 59.4335 60.0371 59.9436 60.0186 59.9529C60.0093 59.9622 58.0709 59.9158 55.715 59.8323C53.3592 59.7581 51.2816 59.721 51.1054 59.7488C50.688 59.8323 50.5118 60.0642 49.7048 61.6131C49.3617 62.2716 48.8144 63.3011 48.4991 63.8855C48.1837 64.4698 47.5809 65.6106 47.1542 66.4175C46.7276 67.2245 46.3473 67.8459 46.3102 67.8088C46.2731 67.7717 45.4754 66.399 44.5387 64.7666C43.5926 63.1342 42.2756 60.834 41.5985 59.6654C40.9122 58.4874 39.8084 56.5675 39.1314 55.3989C38.4543 54.2209 37.7309 52.9688 37.5175 52.6071C37.3135 52.2454 37.1373 51.9022 37.1373 51.8466C37.1373 51.7074 37.6845 51.3086 37.972 51.2437C38.2039 51.188 38.7882 51.2622 41.4037 51.7074C42.2014 51.8373 43.2309 51.9486 43.7225 51.9579C44.5109 51.9579 44.6593 51.9393 45.1508 51.6982C46.1989 51.188 46.709 50.4739 47.4325 48.4705C48.1652 46.4856 48.7588 45.0573 48.9443 44.8903C49.0556 44.7883 49.5286 44.5564 49.9831 44.3802C50.9662 43.9907 50.7622 43.8515 51.801 45.6509Z" fill="#E24C55"/>
<path d="M30.1786 9.55359C21.6364 10.2121 14.5781 16.9921 13.6228 25.4416C13.4559 26.8978 13.4466 28.5302 13.595 29.031C13.7341 29.4948 14.1051 29.773 14.6245 29.773C15.45 29.7916 15.8488 29.1887 15.7468 28.1035C15.6262 26.7587 16.0436 24.0689 16.6372 22.3809C16.9989 21.3699 17.8893 19.5891 18.4736 18.7451C20.8573 15.2299 24.5116 12.8369 28.7039 12.03C29.5108 11.8723 30.1879 11.8167 31.5884 11.7981C33.6289 11.761 33.7495 11.7332 34.0277 11.1396C34.306 10.5553 34.0092 9.82257 33.397 9.64635C32.9704 9.50722 31.3194 9.47012 30.1786 9.55359Z" fill="#E24C55"/>
<path d="M38.0161 11.0547C37.4781 11.2866 37.2277 11.9265 37.4596 12.4738C37.6265 12.8726 37.6636 12.9004 38.8137 13.5033C39.3053 13.7537 39.9638 14.1433 40.2792 14.3566C41.0397 14.8667 41.3087 14.9595 41.7168 14.8203C42.1991 14.6627 42.5144 14.2453 42.5144 13.763C42.5144 13.5497 42.4495 13.2807 42.366 13.1694C41.9394 12.5665 39.0549 10.9156 38.4427 10.9248C38.3593 10.9341 38.1645 10.9898 38.0161 11.0547Z" fill="#E24C55"/>
<path d="M44.0554 15.294C43.4619 15.461 43.063 16.1473 43.2393 16.676C43.2949 16.8244 43.5546 17.214 43.8236 17.5293C44.8531 18.7722 45.66 20.1356 46.3093 21.7494C47.1255 23.7806 47.3852 25.2275 47.3852 27.6668C47.3759 30.4215 46.9956 32.091 45.7899 34.688C45.391 35.5506 45.4096 35.8937 45.9104 36.3297C46.1609 36.5523 46.3185 36.6172 46.6339 36.6172C47.2368 36.6172 47.4779 36.3668 48.0437 35.1796C49.2865 32.5455 49.9172 29.1323 49.6668 26.2849C49.3422 22.5192 47.9973 19.1153 45.6971 16.2401C44.9551 15.3126 44.6305 15.1271 44.0554 15.294Z" fill="#E24C55"/>
<path d="M32.3413 18.6234C32.0353 18.7532 28.5757 21.0813 28.4366 21.2482C28.2511 21.4708 28.1954 22.1015 28.3253 22.4261C28.3902 22.5745 28.5757 22.7879 28.7426 22.8899C29.262 23.2052 29.5681 23.1403 30.5884 22.4725C31.0985 22.1386 31.5251 21.8696 31.5437 21.8696C31.553 21.8696 31.5715 24.4388 31.5715 27.5737V33.2778H30.3194C29.3733 33.2778 28.9931 33.3149 28.789 33.417C28.2789 33.6767 28.0841 34.3908 28.3716 34.9473C28.6684 35.5224 28.5571 35.5038 32.7587 35.5038H36.5985L36.9139 35.1885C37.1736 34.9288 37.2292 34.7989 37.2292 34.4929C37.2292 34.2795 37.1643 33.9827 37.0901 33.8343C36.849 33.3613 36.5429 33.2778 35.1424 33.2778H33.8902V26.4144C33.8902 18.9851 33.8995 19.0964 33.3987 18.7625C33.1111 18.577 32.6103 18.5028 32.3413 18.6234Z" fill="#E24C55"/>
<path d="M16.3623 34.3446C15.0453 34.8733 14.7578 35.0959 14.6557 35.6246C14.5352 36.2274 15.1566 36.9509 15.7873 36.923C16.2974 36.9045 18.3936 36.0141 18.7089 35.6802C19.1726 35.1794 18.9779 34.224 18.3565 33.9643C17.8742 33.7696 17.7165 33.7974 16.3623 34.3446Z" fill="#E24C55"/>
<path d="M20.2356 38.5459C19.9667 38.7221 18.7053 39.9927 18.3343 40.4565C17.954 40.9481 18.1209 41.755 18.6774 42.0425C18.8258 42.1167 19.1226 42.1816 19.336 42.1816C19.707 42.1816 19.7719 42.1353 20.7458 41.1799C21.3023 40.6327 21.8217 40.0484 21.8959 39.8814C22.035 39.5568 21.9886 39.0838 21.8031 38.8427C21.4507 38.3696 20.7087 38.2398 20.2356 38.5459Z" fill="#E24C55"/>
<path d="M39.6433 38.4438C39.3836 38.5366 39.0961 38.8705 38.9941 39.1766C38.8179 39.7145 38.9941 40.0206 40.1535 41.1521C41.183 42.1631 41.2108 42.1816 41.6375 42.1816C41.8786 42.1816 42.1661 42.1167 42.296 42.0332C42.7412 41.7364 42.936 41.0408 42.6948 40.5771C42.5371 40.2803 40.9418 38.6664 40.645 38.5088C40.3946 38.3789 39.9123 38.3511 39.6433 38.4438Z" fill="#E24C55"/>
<path d="M24.567 41.4234C24.4186 41.5162 24.2424 41.7017 24.1775 41.8222C23.8065 42.5735 23.1943 44.1224 23.1572 44.4007C23.0737 45.0778 23.7694 45.7085 24.465 45.5786C25.0493 45.4673 25.2255 45.1891 26.0696 43.1207C26.3571 42.4066 26.32 41.9892 25.9304 41.5996C25.5687 41.2472 24.9751 41.1637 24.567 41.4234Z" fill="#E24C55"/>
<path d="M34.9278 41.5333C34.3063 41.9136 34.2971 42.4051 34.9185 43.9355C35.4564 45.2989 35.7996 45.707 36.3561 45.707C36.9868 45.707 37.5062 45.2062 37.5062 44.594C37.5062 44.2972 37.0703 43.0822 36.6158 42.1269C36.2634 41.3849 35.5677 41.1437 34.9278 41.5333Z" fill="#E24C55"/>
<path d="M29.7909 42.581C29.3828 42.9242 29.3457 43.1097 29.3457 44.5937C29.3457 46.1055 29.4106 46.3837 29.8466 46.6713C30.1712 46.8846 30.839 46.866 31.1265 46.6342C31.5346 46.3188 31.5902 46.0313 31.5531 44.4082L31.5253 42.9056L31.2192 42.6367C30.8297 42.2842 30.1712 42.2564 29.7909 42.581Z" fill="#E24C55"/>
</svg>
