<svg width="67" height="51" viewBox="0 0 67 51" fill="none" xmlns="http://www.w3.org/2000/svg">
<path d="M0.669065 0.052742C0.464171 0.119698 0.112924 0.479591 0.0502013 0.69302C-0.100333 1.21194 0.104561 1.73085 0.564527 1.97776L0.731788 2.06983L20.8867 2.09075C40.4394 2.11168 41.0457 2.11586 41.1879 2.19118C41.3928 2.29999 41.5977 2.50086 41.7022 2.69755L41.7942 2.86494L41.8068 17.1226L41.8151 31.3845H22.9983H4.18153V26.5594V21.7385L4.08118 21.5293C3.8512 21.0396 3.32432 20.8137 2.78491 20.9727C2.55493 21.0396 2.20786 21.387 2.14096 21.6171C2.10332 21.7469 2.09078 22.9647 2.09078 26.6808V31.5728L1.89007 31.6524C1.02449 32.0039 0.330363 32.8241 0.0836534 33.7866C0.00420468 34.1047 2.31663e-05 34.2469 2.31663e-05 37.6492C2.31663e-05 41.5913 -0.00833986 41.4825 0.292729 42.1186C0.698336 42.9932 1.45937 43.6168 2.40021 43.8553C2.71382 43.9348 2.87272 43.939 5.58234 43.939H8.42995L8.50522 44.324C8.68084 45.2363 9.17008 46.3704 9.72204 47.1404C10.826 48.6762 12.44 49.7224 14.305 50.0991C14.7148 50.1828 14.9071 50.1953 15.6807 50.1953C16.4543 50.1953 16.6466 50.1828 17.0564 50.0991C18.6077 49.7852 20.0253 48.9901 21.0665 47.8476C21.9488 46.8809 22.622 45.5627 22.8562 44.324L22.9314 43.939H34.4975H46.0636L46.1388 44.324C46.3144 45.2363 46.8037 46.3704 47.3556 47.1404C48.4596 48.6762 50.0736 49.7224 51.9386 50.0991C52.3484 50.1828 52.5407 50.1953 53.3143 50.1953C54.0879 50.1953 54.2802 50.1828 54.69 50.0991C56.2414 49.7852 57.6589 48.9901 58.7001 47.8476C59.5824 46.8809 60.2556 45.5627 60.4898 44.324L60.565 43.939H62.3673C64.0399 43.939 64.1988 43.9348 64.504 43.8553C65.6623 43.5582 66.5321 42.6919 66.8206 41.5369C66.9 41.2189 66.9042 41.064 66.9042 37.6618C66.9042 34.2469 66.9 34.1047 66.8206 33.7866C66.5739 32.8241 65.8797 32.0039 65.0142 31.6524L64.8134 31.5728V29.2252C64.8134 26.6557 64.8051 26.5134 64.5626 25.7643C64.4957 25.5551 64.366 25.237 64.2824 25.0654C64.1402 24.7851 57.3076 14.1054 56.4755 12.8667C55.7605 11.7995 54.7904 11.0546 53.6572 10.6948C53.0383 10.5022 52.6494 10.4604 51.3615 10.4604H50.1782V9.29702C50.1782 8.22152 50.1698 8.12527 50.0903 7.9495C49.8645 7.44733 49.3293 7.21297 48.7815 7.372C48.5516 7.43896 48.2045 7.7863 48.1376 8.01646C48.1041 8.13364 48.0874 8.5563 48.0874 9.32631V10.4604H45.9966H43.9059V6.59781C43.9059 2.87331 43.9017 2.71848 43.8223 2.40043C43.5839 1.45884 42.9609 0.697205 42.0869 0.291275C41.4053 -0.0309563 43.4627 -0.00166321 20.9828 0.00252151C6.4061 0.00670624 0.773603 0.0192604 0.669065 0.052742ZM52.4947 12.5947C53.285 12.7118 54.0168 13.1219 54.4977 13.7246C54.7611 14.0593 62.3255 25.848 62.43 26.0907C62.4802 26.2037 62.5596 26.4297 62.6056 26.5929C62.6934 26.8733 62.6976 26.9821 62.7143 29.1331L62.7269 31.3845H53.3185H43.9059V21.9687V12.5528H48.0581C50.5712 12.5528 52.3191 12.5696 52.4947 12.5947ZM64.2071 33.5899C64.4037 33.6945 64.6044 33.8996 64.7131 34.1047C64.7884 34.2428 64.7925 34.4143 64.7925 37.6618C64.7925 40.9092 64.7884 41.0808 64.7131 41.2189C64.6044 41.4239 64.4037 41.629 64.2071 41.7336C64.0441 41.8215 63.9897 41.8257 62.3045 41.8382L60.565 41.8508L60.4898 41.4616C60.3141 40.5493 59.8249 39.4152 59.2729 38.6452C58.169 37.1052 56.555 36.0632 54.69 35.6865C54.2802 35.6028 54.0879 35.5903 53.3143 35.5903C52.5407 35.5903 52.3484 35.6028 51.9386 35.6865C50.0694 36.0673 48.4596 37.1052 47.3556 38.6452C46.8037 39.4152 46.3144 40.5493 46.1388 41.4574L46.0636 41.8466H34.4975H22.9314L22.8562 41.4574C22.6805 40.5493 22.1913 39.4152 21.6393 38.6452C20.5354 37.1052 18.9214 36.0632 17.0564 35.6865C16.6466 35.6028 16.4543 35.5903 15.6807 35.5903C14.9071 35.5903 14.7148 35.6028 14.305 35.6865C12.4358 36.0673 10.826 37.1052 9.72204 38.6452C9.17008 39.4152 8.68084 40.5493 8.50522 41.4616L8.42995 41.8508L5.64506 41.8382C2.88527 41.8257 2.86436 41.8257 2.6971 41.7336C2.50057 41.629 2.29567 41.4239 2.19114 41.2189C2.12841 41.1017 2.11169 40.9468 2.09914 40.4112L2.08242 39.7542H2.1995C2.36258 39.7542 2.71382 39.5826 2.85181 39.4361C2.91454 39.3692 3.00235 39.2311 3.04834 39.1265C3.12779 38.9507 3.13616 38.8544 3.13616 37.6618C3.13616 36.4691 3.12779 36.3728 3.04834 36.1971C3.00235 36.0925 2.91454 35.9544 2.85181 35.8874C2.71382 35.7409 2.36258 35.5693 2.1995 35.5693H2.08242L2.09914 34.9081C2.11587 34.1884 2.14514 34.0921 2.40021 33.8201C2.54238 33.6653 2.71382 33.5648 2.90617 33.5146C2.97726 33.4979 16.7595 33.4895 33.5357 33.4937L64.0399 33.4979L64.2071 33.5899ZM16.7428 37.7915C18.7625 38.2016 20.3514 39.8002 20.7863 41.8466C20.8574 42.1856 20.8783 42.4241 20.8783 42.8928C20.8783 43.3615 20.8574 43.6 20.7863 43.939C20.3514 45.9937 18.7792 47.5672 16.7219 48.0025C16.1114 48.1322 15.25 48.1322 14.6395 48.0025C12.5822 47.5672 11.0099 45.9937 10.5751 43.939C10.4454 43.3238 10.4454 42.4618 10.5751 41.8508C11.0476 39.6203 12.8289 37.9924 15.1036 37.7036C15.526 37.6534 16.2494 37.6911 16.7428 37.7915ZM54.3764 37.7915C56.3961 38.2016 57.985 39.8002 58.4199 41.8466C58.491 42.1856 58.5119 42.4241 58.5119 42.8928C58.5119 43.3615 58.491 43.6 58.4199 43.939C57.985 45.9937 56.4128 47.5672 54.3555 48.0025C53.745 48.1322 52.8836 48.1322 52.2731 48.0025C50.2158 47.5672 48.6435 45.9937 48.2087 43.939C48.079 43.3238 48.079 42.4618 48.2087 41.8508C48.6812 39.6203 50.4625 37.9924 52.7372 37.7036C53.1596 37.6534 53.883 37.6911 54.3764 37.7915Z" fill="#E24C55"/>
<path d="M47.4596 14.7416C46.7571 14.9801 46.2679 15.4865 46.063 16.1896C46.0045 16.3904 45.9961 16.834 45.9961 19.8806C45.9961 23.2159 46.0003 23.3498 46.0797 23.6051C46.2972 24.3081 46.8324 24.8312 47.5391 25.0405C47.7398 25.0991 48.2374 25.1074 51.8502 25.1074C55.4839 25.1074 55.9564 25.0991 56.1613 25.0405C56.9182 24.8145 57.512 24.1868 57.6667 23.446C57.7294 23.1238 57.6918 22.5923 57.5831 22.3036C57.5371 22.1739 56.5753 20.592 55.4505 18.7883C53.2552 15.2689 53.1507 15.1224 52.6781 14.8839C52.214 14.6495 52.1805 14.6454 49.864 14.6454L49.8583 14.6454C47.769 14.6495 47.727 14.6496 47.4596 14.7416ZM53.6232 19.8513C54.6936 21.5629 55.5717 22.9732 55.5717 22.9899C55.5717 23.0025 53.8866 23.015 51.8293 23.015H48.0868V19.8764V16.7378H49.8807H51.6746L53.6232 19.8513Z" fill="#E24C55"/>
<path d="M47.4596 14.7416C46.7571 14.9801 46.2679 15.4865 46.063 16.1896C46.0045 16.3904 45.9961 16.834 45.9961 19.8806C45.9961 23.2159 46.0003 23.3498 46.0797 23.6051C46.2972 24.3081 46.8324 24.8312 47.5391 25.0405C47.7398 25.0991 48.2374 25.1074 51.8502 25.1074C55.4839 25.1074 55.9564 25.0991 56.1613 25.0405C56.9182 24.8145 57.512 24.1868 57.6667 23.446C57.7294 23.1238 57.6918 22.5923 57.5831 22.3036C57.5371 22.1739 56.5753 20.592 55.4505 18.7883C53.2552 15.2689 53.1507 15.1224 52.6781 14.8839C52.214 14.6495 52.1805 14.6454 49.864 14.6454L49.8583 14.6454C47.769 14.6495 47.727 14.6496 47.4596 14.7416ZM53.6232 19.8513C54.6936 21.5629 55.5717 22.9732 55.5717 22.9899C55.5717 23.0025 53.8866 23.015 51.8293 23.015H48.0868V19.8764V16.7378H49.8807H51.6746L53.6232 19.8513Z" stroke="#E24C55"/>
<path d="M46.6653 27.255C46.4604 27.3219 46.1092 27.6818 46.0464 27.8952C45.8875 28.4351 46.1133 28.9624 46.6026 29.1925C46.8075 29.2888 46.8326 29.293 48.087 29.293C49.3415 29.293 49.3666 29.2888 49.5715 29.1925C49.952 29.0126 50.1778 28.6652 50.1778 28.2468C50.1778 27.8283 49.952 27.4809 49.5715 27.301C49.3666 27.2047 49.3457 27.2006 48.087 27.2047C47.2842 27.2089 46.7573 27.2257 46.6653 27.255Z" fill="#E24C55"/>
<path d="M46.6653 27.255C46.4604 27.3219 46.1092 27.6818 46.0464 27.8952C45.8875 28.4351 46.1133 28.9624 46.6026 29.1925C46.8075 29.2888 46.8326 29.293 48.087 29.293C49.3415 29.293 49.3666 29.2888 49.5715 29.1925C49.952 29.0126 50.1778 28.6652 50.1778 28.2468C50.1778 27.8283 49.952 27.4809 49.5715 27.301C49.3666 27.2047 49.3457 27.2006 48.087 27.2047C47.2842 27.2089 46.7573 27.2257 46.6653 27.255Z" stroke="#E24C55"/>
<path d="M6.94248 35.6232C6.73759 35.6902 6.38634 36.0501 6.32362 36.2635C6.29016 36.3849 6.27344 36.8243 6.27344 37.6864C6.27344 38.8539 6.2818 38.9502 6.36125 39.1259C6.47415 39.377 6.62887 39.536 6.87976 39.6532C7.41081 39.9043 8.02967 39.67 8.27638 39.1259C8.35583 38.9502 8.3642 38.8539 8.3642 37.6612C8.3642 36.4058 8.36001 36.3807 8.26384 36.1756C8.14676 35.9245 7.98786 35.7697 7.73697 35.6567C7.52789 35.5605 7.18501 35.5479 6.94248 35.6232Z" fill="#E24C55"/>
<path d="M6.94248 35.6232C6.73759 35.6902 6.38634 36.0501 6.32362 36.2635C6.29016 36.3849 6.27344 36.8243 6.27344 37.6864C6.27344 38.8539 6.2818 38.9502 6.36125 39.1259C6.47415 39.377 6.62887 39.536 6.87976 39.6532C7.41081 39.9043 8.02967 39.67 8.27638 39.1259C8.35583 38.9502 8.3642 38.8539 8.3642 37.6612C8.3642 36.4058 8.36001 36.3807 8.26384 36.1756C8.14676 35.9245 7.98786 35.7697 7.73697 35.6567C7.52789 35.5605 7.18501 35.5479 6.94248 35.6232Z" stroke="#E24C55"/>
<path d="M23.669 35.6232C23.4641 35.6902 23.1129 36.0501 23.0502 36.2635C23.0167 36.3849 23 36.8243 23 37.6864C23 38.8539 23.0084 38.9502 23.0878 39.1259C23.2007 39.377 23.3554 39.536 23.6063 39.6532C24.1374 39.9043 24.7562 39.67 25.0029 39.1259C25.0824 38.9502 25.0908 38.8539 25.0908 37.6612C25.0908 36.4058 25.0866 36.3807 24.9904 36.1756C24.8733 35.9245 24.7144 35.7697 24.4635 35.6567C24.2545 35.5605 23.9116 35.5479 23.669 35.6232Z" fill="#E24C55"/>
<path d="M23.669 35.6232C23.4641 35.6902 23.1129 36.0501 23.0502 36.2635C23.0167 36.3849 23 36.8243 23 37.6864C23 38.8539 23.0084 38.9502 23.0878 39.1259C23.2007 39.377 23.3554 39.536 23.6063 39.6532C24.1374 39.9043 24.7562 39.67 25.0029 39.1259C25.0824 38.9502 25.0908 38.8539 25.0908 37.6612C25.0908 36.4058 25.0866 36.3807 24.9904 36.1756C24.8733 35.9245 24.7144 35.7697 24.4635 35.6567C24.2545 35.5605 23.9116 35.5479 23.669 35.6232Z" stroke="#E24C55"/>
<path d="M28.8937 35.6232C28.6888 35.6902 28.3375 36.0501 28.2748 36.2635C28.2413 36.3849 28.2246 36.8243 28.2246 37.6864C28.2246 38.8539 28.233 38.9502 28.3124 39.1259C28.4253 39.377 28.58 39.536 28.8309 39.6532C29.362 39.9043 29.9808 39.67 30.2276 39.1259C30.307 38.9502 30.3154 38.8539 30.3154 37.6612C30.3154 36.4058 30.3112 36.3807 30.215 36.1756C30.0979 35.9245 29.939 35.7697 29.6881 35.6567C29.4791 35.5605 29.1362 35.5479 28.8937 35.6232Z" fill="#E24C55"/>
<path d="M28.8937 35.6232C28.6888 35.6902 28.3375 36.0501 28.2748 36.2635C28.2413 36.3849 28.2246 36.8243 28.2246 37.6864C28.2246 38.8539 28.233 38.9502 28.3124 39.1259C28.4253 39.377 28.58 39.536 28.8309 39.6532C29.362 39.9043 29.9808 39.67 30.2276 39.1259C30.307 38.9502 30.3154 38.8539 30.3154 37.6612C30.3154 36.4058 30.3112 36.3807 30.215 36.1756C30.0979 35.9245 29.939 35.7697 29.6881 35.6567C29.4791 35.5605 29.1362 35.5479 28.8937 35.6232Z" stroke="#E24C55"/>
<path d="M34.1222 35.6232C33.9173 35.6902 33.566 36.0501 33.5033 36.2635C33.4699 36.3849 33.4531 36.8243 33.4531 37.6864C33.4531 38.8539 33.4615 38.9502 33.5409 39.1259C33.6538 39.377 33.8086 39.536 34.0594 39.6532C34.5905 39.9043 35.2093 39.67 35.4561 39.1259C35.5355 38.9502 35.5439 38.8539 35.5439 37.6612C35.5439 36.4058 35.5397 36.3807 35.4435 36.1756C35.3264 35.9245 35.1675 35.7697 34.9166 35.6567C34.7076 35.5605 34.3647 35.5479 34.1222 35.6232Z" fill="#E24C55"/>
<path d="M34.1222 35.6232C33.9173 35.6902 33.566 36.0501 33.5033 36.2635C33.4699 36.3849 33.4531 36.8243 33.4531 37.6864C33.4531 38.8539 33.4615 38.9502 33.5409 39.1259C33.6538 39.377 33.8086 39.536 34.0594 39.6532C34.5905 39.9043 35.2093 39.67 35.4561 39.1259C35.5355 38.9502 35.5439 38.8539 35.5439 37.6612C35.5439 36.4058 35.5397 36.3807 35.4435 36.1756C35.3264 35.9245 35.1675 35.7697 34.9166 35.6567C34.7076 35.5605 34.3647 35.5479 34.1222 35.6232Z" stroke="#E24C55"/>
<path d="M39.3468 35.6232C39.1419 35.6902 38.7906 36.0501 38.7279 36.2635C38.6945 36.3849 38.6777 36.8243 38.6777 37.6864C38.6777 38.8539 38.6861 38.9502 38.7655 39.1259C38.8784 39.377 39.0332 39.536 39.2841 39.6532C39.8151 39.9043 40.434 39.67 40.6807 39.1259C40.7601 38.9502 40.7685 38.8539 40.7685 37.6612C40.7685 36.4058 40.7643 36.3807 40.6681 36.1756C40.5511 35.9245 40.3922 35.7697 40.1413 35.6567C39.9322 35.5605 39.5893 35.5479 39.3468 35.6232Z" fill="#E24C55"/>
<path d="M39.3468 35.6232C39.1419 35.6902 38.7906 36.0501 38.7279 36.2635C38.6945 36.3849 38.6777 36.8243 38.6777 37.6864C38.6777 38.8539 38.6861 38.9502 38.7655 39.1259C38.8784 39.377 39.0332 39.536 39.2841 39.6532C39.8151 39.9043 40.434 39.67 40.6807 39.1259C40.7601 38.9502 40.7685 38.8539 40.7685 37.6612C40.7685 36.4058 40.7643 36.3807 40.6681 36.1756C40.5511 35.9245 40.3922 35.7697 40.1413 35.6567C39.9322 35.5605 39.5893 35.5479 39.3468 35.6232Z" stroke="#E24C55"/>
<path d="M44.5753 35.6232C44.3704 35.6902 44.0192 36.0501 43.9564 36.2635C43.923 36.3849 43.9062 36.8243 43.9062 37.6864C43.9062 38.8539 43.9146 38.9502 43.9941 39.1259C44.107 39.377 44.2617 39.536 44.5126 39.6532C45.0436 39.9043 45.6625 39.67 45.9092 39.1259C45.9887 38.9502 45.997 38.8539 45.997 37.6612C45.997 36.4058 45.9928 36.3807 45.8967 36.1756C45.7796 35.9245 45.6207 35.7697 45.3698 35.6567C45.1607 35.5605 44.8178 35.5479 44.5753 35.6232Z" fill="#E24C55"/>
<path d="M44.5753 35.6232C44.3704 35.6902 44.0192 36.0501 43.9564 36.2635C43.923 36.3849 43.9062 36.8243 43.9062 37.6864C43.9062 38.8539 43.9146 38.9502 43.9941 39.1259C44.107 39.377 44.2617 39.536 44.5126 39.6532C45.0436 39.9043 45.6625 39.67 45.9092 39.1259C45.9887 38.9502 45.997 38.8539 45.997 37.6612C45.997 36.4058 45.9928 36.3807 45.8967 36.1756C45.7796 35.9245 45.6207 35.7697 45.3698 35.6567C45.1607 35.5605 44.8178 35.5479 44.5753 35.6232Z" stroke="#E24C55"/>
<path d="M61.2999 35.6232C61.095 35.6902 60.7438 36.0501 60.681 36.2635C60.6476 36.3849 60.6309 36.8243 60.6309 37.6864C60.6309 38.8539 60.6392 38.9502 60.7187 39.1259C60.8316 39.377 60.9863 39.536 61.2372 39.6532C61.7682 39.9043 62.3871 39.67 62.6338 39.1259C62.7133 38.9502 62.7216 38.8539 62.7216 37.6612C62.7216 36.4058 62.7174 36.3807 62.6213 36.1756C62.5042 35.9245 62.3453 35.7697 62.0944 35.6567C61.8853 35.5605 61.5424 35.5479 61.2999 35.6232Z" fill="#E24C55"/>
<path d="M61.2999 35.6232C61.095 35.6902 60.7438 36.0501 60.681 36.2635C60.6476 36.3849 60.6309 36.8243 60.6309 37.6864C60.6309 38.8539 60.6392 38.9502 60.7187 39.1259C60.8316 39.377 60.9863 39.536 61.2372 39.6532C61.7682 39.9043 62.3871 39.67 62.6338 39.1259C62.7133 38.9502 62.7216 38.8539 62.7216 37.6612C62.7216 36.4058 62.7174 36.3807 62.6213 36.1756C62.5042 35.9245 62.3453 35.7697 62.0944 35.6567C61.8853 35.5605 61.5424 35.5479 61.2999 35.6232Z" stroke="#E24C55"/>
<path d="M15.0534 40.8978C14.1502 41.2074 13.5898 41.9691 13.5898 42.8939C13.5898 44.0531 14.5223 44.9863 15.6848 44.9863C16.8347 44.9863 17.7714 44.0489 17.7714 42.8939C17.7714 41.9481 17.1567 41.1405 16.2284 40.8685C15.8939 40.7722 15.3879 40.7848 15.0534 40.8978Z" fill="#E24C55"/>
<path d="M15.0534 40.8978C14.1502 41.2074 13.5898 41.9691 13.5898 42.8939C13.5898 44.0531 14.5223 44.9863 15.6848 44.9863C16.8347 44.9863 17.7714 44.0489 17.7714 42.8939C17.7714 41.9481 17.1567 41.1405 16.2284 40.8685C15.8939 40.7722 15.3879 40.7848 15.0534 40.8978Z" stroke="#E24C55"/>
<path d="M52.6862 40.8978C51.783 41.2074 51.2227 41.9691 51.2227 42.8939C51.2227 44.0531 52.1551 44.9863 53.3176 44.9863C54.4675 44.9863 55.4042 44.0489 55.4042 42.8939C55.4042 41.9481 54.7895 41.1405 53.8612 40.8685C53.5267 40.7722 53.0207 40.7848 52.6862 40.8978Z" fill="#E24C55"/>
<path d="M52.6862 40.8978C51.783 41.2074 51.2227 41.9691 51.2227 42.8939C51.2227 44.0531 52.1551 44.9863 53.3176 44.9863C54.4675 44.9863 55.4042 44.0489 55.4042 42.8939C55.4042 41.9481 54.7895 41.1405 53.8612 40.8685C53.5267 40.7722 53.0207 40.7848 52.6862 40.8978Z" stroke="#E24C55"/>
<path d="M0.669211 4.23738C0.464317 4.30434 0.11307 4.66423 0.0503476 4.87766C-0.10855 5.4175 0.117252 5.94479 0.606489 6.17495L0.815564 6.27539H3.1363C5.38177 6.27539 5.46122 6.27121 5.64521 6.18751C5.8961 6.07452 6.055 5.91968 6.17208 5.66859C6.42297 5.13712 6.18881 4.51776 5.64521 4.27086C5.46122 4.18716 5.38596 4.18298 3.1363 4.18716C1.56824 4.19135 0.769568 4.20809 0.669211 4.23738Z" fill="#E24C55"/>
<path d="M0.669211 4.23738C0.464317 4.30434 0.11307 4.66423 0.0503476 4.87766C-0.10855 5.4175 0.117252 5.94479 0.606489 6.17495L0.815564 6.27539H3.1363C5.38177 6.27539 5.46122 6.27121 5.64521 6.18751C5.8961 6.07452 6.055 5.91968 6.17208 5.66859C6.42297 5.13712 6.18881 4.51776 5.64521 4.27086C5.46122 4.18716 5.38596 4.18298 3.1363 4.18716C1.56824 4.19135 0.769568 4.20809 0.669211 4.23738Z" stroke="#E24C55"/>
<path d="M9.03445 4.23738C8.82955 4.30434 8.4783 4.66423 8.41558 4.87766C8.25668 5.4175 8.48249 5.94479 8.97172 6.17495L9.1808 6.27539H20.9099C32.6182 6.27539 32.6391 6.27539 32.8272 6.18751C33.0781 6.07452 33.237 5.91968 33.3541 5.66859C33.605 5.13712 33.3708 4.51776 32.8272 4.27086C32.6391 4.18298 32.6223 4.18298 20.9099 4.18716C12.4842 4.19135 9.13898 4.2039 9.03445 4.23738Z" fill="#E24C55"/>
<path d="M9.03445 4.23738C8.82955 4.30434 8.4783 4.66423 8.41558 4.87766C8.25668 5.4175 8.48249 5.94479 8.97172 6.17495L9.1808 6.27539H20.9099C32.6182 6.27539 32.6391 6.27539 32.8272 6.18751C33.0781 6.07452 33.237 5.91968 33.3541 5.66859C33.605 5.13712 33.3708 4.51776 32.8272 4.27086C32.6391 4.18298 32.6223 4.18298 20.9099 4.18716C12.4842 4.19135 9.13898 4.2039 9.03445 4.23738Z" stroke="#E24C55"/>
<path d="M0.669211 8.42293C0.464317 8.48988 0.11307 8.84978 0.0503476 9.06321C-0.10855 9.60305 0.117252 10.1303 0.606489 10.3605L0.815564 10.4609H12.5447C24.2529 10.4609 24.2738 10.4609 24.462 10.3731C25.0056 10.1262 25.2398 9.5068 24.9889 8.97532C24.8718 8.72423 24.7129 8.5694 24.462 8.45641C24.2738 8.36852 24.2571 8.36852 12.5447 8.37271C4.11896 8.37689 0.773749 8.38945 0.669211 8.42293Z" fill="#E24C55"/>
<path d="M0.669211 8.42293C0.464317 8.48988 0.11307 8.84978 0.0503476 9.06321C-0.10855 9.60305 0.117252 10.1303 0.606489 10.3605L0.815564 10.4609H12.5447C24.2529 10.4609 24.2738 10.4609 24.462 10.3731C25.0056 10.1262 25.2398 9.5068 24.9889 8.97532C24.8718 8.72423 24.7129 8.5694 24.462 8.45641C24.2738 8.36852 24.2571 8.36852 12.5447 8.37271C4.11896 8.37689 0.773749 8.38945 0.669211 8.42293Z" stroke="#E24C55"/>
<path d="M0.669211 12.6065C0.464317 12.6735 0.11307 13.0334 0.0503476 13.2468C-0.10855 13.7866 0.117252 14.3139 0.606489 14.5441L0.815564 14.6445H8.36319H15.9108L16.1199 14.5441C16.5004 14.3641 16.7262 14.0168 16.7262 13.5983C16.7262 13.1798 16.5004 12.8325 16.1199 12.6526L15.9108 12.5521L8.36319 12.5563C2.98577 12.5605 0.773749 12.573 0.669211 12.6065Z" fill="#E24C55"/>
<path d="M0.669211 12.6065C0.464317 12.6735 0.11307 13.0334 0.0503476 13.2468C-0.10855 13.7866 0.117252 14.3139 0.606489 14.5441L0.815564 14.6445H8.36319H15.9108L16.1199 14.5441C16.5004 14.3641 16.7262 14.0168 16.7262 13.5983C16.7262 13.1798 16.5004 12.8325 16.1199 12.6526L15.9108 12.5521L8.36319 12.5563C2.98577 12.5605 0.773749 12.573 0.669211 12.6065Z" stroke="#E24C55"/>
<path d="M0.669211 16.794C0.464317 16.861 0.11307 17.2209 0.0503476 17.4343C-0.10855 17.9741 0.117252 18.5014 0.606489 18.7316L0.815564 18.832H4.18168C7.47671 18.832 7.55198 18.8278 7.73596 18.7441C7.98686 18.6312 8.14575 18.4763 8.26283 18.2252C8.51373 17.6938 8.27956 17.0744 7.73596 16.8275C7.55198 16.7438 7.48089 16.7396 4.18168 16.7438C1.85258 16.748 0.769567 16.7605 0.669211 16.794Z" fill="#E24C55"/>
<path d="M0.669211 16.794C0.464317 16.861 0.11307 17.2209 0.0503476 17.4343C-0.10855 17.9741 0.117252 18.5014 0.606489 18.7316L0.815564 18.832H4.18168C7.47671 18.832 7.55198 18.8278 7.73596 18.7441C7.98686 18.6312 8.14575 18.4763 8.26283 18.2252C8.51373 17.6938 8.27956 17.0744 7.73596 16.8275C7.55198 16.7438 7.48089 16.7396 4.18168 16.7438C1.85258 16.748 0.769567 16.7605 0.669211 16.794Z" stroke="#E24C55"/>
</svg>
