<svg width="63" height="65" viewBox="0 0 63 65" fill="none" xmlns="http://www.w3.org/2000/svg">
<path d="M27.1287 0.0809097C26.2495 0.288368 25.2814 1.10832 25.0146 1.85913C24.9455 2.04683 24.5108 3.7065 24.0465 5.55387C23.5822 7.40125 23.1771 8.98189 23.1475 9.0708C23.1277 9.15971 22.8906 9.3079 22.6338 9.40668C22.3769 9.50547 21.7842 9.76233 21.31 9.96979L20.4505 10.3649L17.388 8.52745C15.7086 7.50992 14.1181 6.59117 13.8513 6.47262C13.5352 6.33432 13.1697 6.26516 12.7251 6.25528C11.5693 6.2454 11.1445 6.53189 8.77354 8.9325C6.40258 11.3331 6.26427 11.5406 6.27415 12.7655C6.27415 13.7238 6.18524 13.5361 8.56608 17.4877L10.3344 20.4317L9.85035 21.5875C9.58362 22.2198 9.32677 22.8323 9.28725 22.9409C9.2181 23.1089 8.64511 23.2768 5.71105 24.0177C3.78464 24.4919 2.00642 24.976 1.73969 25.0847C1.4532 25.2131 1.0778 25.4996 0.781427 25.8256C0.0009857 26.6752 -0.0286513 26.8629 0.0108647 30.5181L0.0405017 33.6102L0.326993 34.1338C0.653 34.7167 1.08768 35.1415 1.65078 35.428C1.84836 35.5268 3.63646 36.0207 5.62214 36.5245C7.60782 37.0185 9.22798 37.4334 9.23785 37.4433C9.23785 37.4532 9.38604 37.8385 9.57374 38.3028C9.75156 38.7671 10.0084 39.3598 10.1368 39.6167C10.2949 39.9328 10.3443 40.1304 10.285 40.2094C10.2258 40.2786 9.89975 40.812 9.5441 41.4147C9.19834 42.0074 8.34874 43.43 7.66709 44.5562C6.34331 46.7493 6.15561 47.2334 6.24452 48.1324C6.33343 49.0314 6.60016 49.3969 8.81306 51.6197C11.3026 54.1191 11.5001 54.2574 12.735 54.2574C13.7427 54.2574 13.4562 54.3858 17.5263 51.9556C20.164 50.3749 20.5098 50.1971 20.6876 50.3058C20.7963 50.3749 21.3792 50.6219 21.9719 50.859C22.5745 51.0961 23.0783 51.2937 23.0882 51.3035C23.108 51.3233 23.5427 52.9731 24.0465 54.9884C25.0047 58.8017 25.1727 59.266 25.7852 59.7797C26.536 60.412 26.7731 60.4811 28.5513 60.5108L30.1912 60.5503L30.2406 61.4295C30.3098 62.5162 30.6061 63.188 31.3076 63.8202C32.2164 64.6402 31.0705 64.5908 46.62 64.5612L60.4012 64.5315L60.9347 64.2352C61.5472 63.8993 62.1004 63.2868 62.3474 62.6743C62.5054 62.289 62.5153 61.3307 62.5153 49.5056C62.5252 34.9538 62.6042 36.1887 61.646 35.2304C61.2508 34.8451 60.9446 34.6278 60.5889 34.5092L60.0752 34.3413L60.2925 33.9264C60.4901 33.5312 60.5 33.383 60.5 30.3008C60.5 27.2185 60.4901 27.0703 60.2827 26.6258C60.0061 26.033 59.3738 25.3415 58.8996 25.1242C58.6921 25.0353 56.904 24.5413 54.9184 24.0375L51.3224 23.1286L51.0853 22.5359C50.9569 22.2198 50.7 21.6171 50.5123 21.2121L50.1666 20.4712L52.1424 17.1815C54.217 13.7139 54.4047 13.3089 54.2762 12.4395C54.128 11.4121 53.8514 11.017 51.7275 8.8831C49.396 6.54177 48.9811 6.26516 47.8154 6.26516C46.9361 6.26516 46.7484 6.35407 43.0734 8.55709L40.0801 10.3649L39.2206 9.96979C38.7563 9.75245 38.1833 9.51535 37.9462 9.4462C37.719 9.37705 37.4918 9.27826 37.4424 9.21898C37.393 9.15971 36.9682 7.52967 36.494 5.60327C36.0198 3.67686 35.5259 1.89864 35.3975 1.65167C35.111 1.06881 34.538 0.535339 33.9255 0.248848C33.4513 0.0315094 33.3327 0.0216293 30.4678 0.00187683C28.8378 -0.00800323 27.3362 0.0216293 27.1287 0.0809097ZM33.2636 2.20489C33.3821 2.28392 33.5303 2.44199 33.5896 2.55066C33.6489 2.6692 34.0934 4.33876 34.5775 6.27504C35.0616 8.22121 35.5456 9.98955 35.6642 10.2266C35.921 10.7206 36.1779 10.9182 36.988 11.2343C37.314 11.3627 38.0253 11.669 38.5686 11.9061C39.3787 12.2716 39.6652 12.3605 40.1196 12.3506C40.6827 12.3506 40.7321 12.3309 44.091 10.3156C46.215 9.03128 47.5881 8.2706 47.7561 8.2706C48.2105 8.2706 48.5069 8.51757 50.4037 10.4143C52.172 12.2024 52.251 12.3012 52.251 12.6766C52.251 13.0026 51.9645 13.5361 50.4135 16.1244C49.4059 17.8038 48.497 19.3548 48.3883 19.5524C48.1315 20.0563 48.1414 20.896 48.4081 21.4393C48.5168 21.6665 48.8033 22.3383 49.0502 22.931C49.6035 24.3042 49.7813 24.5808 50.2456 24.8377C50.4531 24.9562 52.2708 25.4601 54.2762 25.9639C57.4869 26.7641 57.9611 26.9123 58.2081 27.1494L58.4748 27.4161V30.2711C58.4748 33.3731 58.4649 33.4225 57.9117 33.6399C57.7635 33.6992 57.0918 33.8869 56.4299 34.0548L55.2246 34.3512H49.5244H43.8341L43.8835 34.0746C43.923 33.9264 44.0218 33.4719 44.1206 33.0669C44.3676 32.0098 44.3676 28.6115 44.1305 27.4853C43.1525 22.9706 40.2876 19.3548 36.1977 17.4581C35.1702 16.974 33.8662 16.569 33.3723 16.569C32.5128 16.569 32.0781 17.6557 32.7005 18.2385C32.819 18.3373 33.2932 18.5448 33.7575 18.6929C38.0648 20.0266 41.1569 23.4151 42.1349 27.8804C42.2634 28.4435 42.3128 29.1252 42.3128 30.2514C42.3226 31.8419 42.2535 32.3556 41.8682 33.6794L41.6706 34.3512H37.1954C33.3525 34.3512 32.661 34.3709 32.2559 34.5092C31.6237 34.7266 30.8037 35.4971 30.5074 36.1491L30.2703 36.6727L30.2406 47.6088L30.2209 58.5547H28.9366C27.5634 58.5547 27.2473 58.4856 27.0201 58.1398C26.941 58.0114 26.4668 56.3122 25.9729 54.3561C24.9949 50.4935 24.9554 50.3552 24.6293 49.9699C24.4021 49.6933 24.2243 49.6043 22.1398 48.735C20.7568 48.1521 20.3023 48.0731 19.7195 48.3201C19.5417 48.3892 17.9907 49.2981 16.2717 50.3354C14.5528 51.3628 13.0314 52.2322 12.8931 52.2717C12.7647 52.3013 12.5572 52.2914 12.4485 52.2519C12.33 52.2124 11.352 51.2937 10.2653 50.207C8.35862 48.3102 8.28947 48.2213 8.28947 47.8459C8.28947 47.5199 8.58584 46.9568 10.285 44.1413C12.1917 40.9602 12.2806 40.7923 12.3201 40.2292C12.3497 39.7056 12.3201 39.5376 11.9941 38.8461C11.7965 38.4114 11.5001 37.7002 11.3322 37.2655C10.9766 36.3368 10.6703 35.8923 10.2356 35.6651C10.0578 35.5762 8.2302 35.0822 6.17536 34.5586C2.6782 33.6695 2.41146 33.5905 2.22376 33.3336C2.02618 33.0669 2.0163 32.9385 2.0163 30.2316V27.4161L2.32255 27.1494C2.57941 26.9123 3.13263 26.7443 6.2544 25.9639C8.25983 25.4699 10.0084 24.9958 10.1566 24.9266C10.6308 24.6796 10.937 24.2746 11.2631 23.4546C11.4409 23.0101 11.757 22.2494 11.9743 21.7653C12.3102 21.0046 12.3596 20.8169 12.3201 20.323C12.2806 19.7895 12.162 19.5623 10.3937 16.6085C8.14128 12.8347 8.28947 13.1113 8.28947 12.647C8.28947 12.2914 8.38826 12.1728 10.3048 10.2563L12.3201 8.24096L12.7548 8.29036C13.0808 8.32988 13.9106 8.78431 16.4594 10.3156C18.5834 11.5998 19.8677 12.3111 20.1146 12.3506C20.6086 12.4297 20.984 12.3309 22.1695 11.8073C22.7128 11.5603 23.3945 11.2837 23.681 11.175C24.2441 10.9774 24.7973 10.4934 24.9751 10.0686C25.0344 9.92039 25.4789 8.18169 25.9729 6.19601C26.8027 2.85691 26.8916 2.57042 27.1584 2.31356L27.4547 2.04683H30.2505C32.6116 2.04683 33.0759 2.06659 33.2636 2.20489ZM60.2135 36.6629C60.5296 36.979 60.5494 37.0383 60.5494 37.6508V38.3028H59.3442C58.6724 38.3028 52.419 38.3028 45.4345 38.3126C38.4501 38.3126 32.6412 38.3126 32.5227 38.3126C32.3152 38.3028 32.2955 38.2633 32.2955 37.6804C32.3053 37.0086 32.4436 36.6629 32.7993 36.4653C32.9969 36.3566 35.5061 36.3368 46.4521 36.327H59.8776L60.2135 36.6629ZM60.5296 51.1949L60.5 62.0124L60.2234 62.2791L59.9567 62.5557H46.4125H32.8684L32.5819 62.2297L32.2955 61.9136V51.1455V40.3774H46.4224H60.5494L60.5296 51.1949Z" fill="#E24C55"/>
<path d="M27.6807 16.3819C26.4162 16.6289 25.6654 16.8956 25.4283 17.1821C24.9936 17.7057 25.1517 18.3676 25.7938 18.7035C26.0704 18.8418 26.1495 18.8418 26.8509 18.664C27.2658 18.5454 27.8684 18.4071 28.1944 18.3478C28.9551 18.2095 29.212 18.0712 29.3898 17.7353C29.617 17.3007 29.5577 16.9747 29.1922 16.6091C28.8267 16.2436 28.5501 16.2041 27.6807 16.3819Z" fill="#E24C55"/>
<path d="M20.4711 20.1452C20.1747 20.2835 19.9179 20.8664 19.9969 21.1924C20.0759 21.5481 21.785 23.2571 22.19 23.3954C22.7433 23.5733 23.4051 23.0694 23.4051 22.4668C23.4051 22.0223 23.1878 21.7061 22.2789 20.8368C21.5183 20.1057 21.3997 20.0267 21.0638 20.0366C20.8564 20.0366 20.5896 20.086 20.4711 20.1452Z" fill="#E24C55"/>
<path d="M28.7381 22.3491C27.3156 22.6356 25.6756 23.4753 24.6581 24.4533C23.7295 25.3523 22.8107 26.9033 22.4551 28.1777C22.2081 29.0866 22.1587 31.013 22.3563 31.9219C22.8502 34.1051 24.1345 35.9525 25.9621 37.0985C27.0488 37.7801 27.6811 37.7307 28.0071 36.9602C28.096 36.7428 28.1059 36.5551 28.0466 36.3378C27.9478 35.9723 27.7996 35.8142 27.3551 35.587C25.9029 34.8461 24.6976 33.2061 24.3321 31.4971C23.7196 28.5828 25.4089 25.6092 28.3035 24.5521C28.7381 24.3941 29.1827 24.3249 30.052 24.2953C31.0992 24.2558 31.2968 24.2854 32.0377 24.5126C33.5393 24.9769 34.7742 25.9648 35.525 27.3183C36.0486 28.2666 36.2462 29.0174 36.2758 30.2029C36.2956 30.7759 36.3647 31.339 36.424 31.4576C36.7599 32.0701 37.4712 32.159 37.9849 31.6453C38.3208 31.3094 38.3208 31.3094 38.3208 30.361C38.3208 28.1185 37.5008 26.1229 35.93 24.5521C34.0827 22.7048 31.2672 21.8453 28.7381 22.3491Z" fill="#E24C55"/>
<path d="M17.4698 24.4637C17.1438 24.7897 17.0944 25.2047 17.3315 25.6492C17.4401 25.8665 17.7266 26.0444 18.6256 26.4395C19.2579 26.7161 19.8802 26.9434 20.0186 26.9434C20.8583 26.9434 21.3522 25.9258 20.8188 25.3232C20.5224 24.9972 18.596 24.1772 18.1218 24.1772C17.8551 24.1772 17.6871 24.2563 17.4698 24.4637Z" fill="#E24C55"/>
<path d="M29.6395 28.3735C28.0885 28.8675 27.7723 30.9717 29.1159 31.9201C29.5901 32.256 30.3804 32.3647 30.9336 32.1868C31.6054 31.9596 32.287 31.0409 32.2969 30.3395C32.2969 29.9147 32.0401 29.2231 31.7733 28.9367C31.2497 28.3735 30.3606 28.1365 29.6395 28.3735Z" fill="#E24C55"/>
<path d="M16.517 29.4906C16.3985 29.5795 16.2503 29.8067 16.1811 29.9747C16.0922 30.2414 16.1021 30.36 16.2602 30.6662C16.359 30.8737 16.5467 31.091 16.685 31.1602C17.0011 31.3182 19.2831 31.3281 19.5795 31.1799C20.2019 30.8638 20.3402 30.0834 19.8561 29.5993L19.5696 29.3128H18.1471C16.9616 29.3128 16.6948 29.3424 16.517 29.4906Z" fill="#E24C55"/>
<path d="M18.5738 33.9061C17.4179 34.3803 17.082 34.6667 17.082 35.1903C17.082 35.625 17.4673 36.0893 17.9119 36.1684C18.1786 36.2177 18.4848 36.1387 19.3641 35.7732C20.6484 35.2496 20.7175 35.2101 20.9052 34.7655C21.0139 34.4988 21.0139 34.4 20.8953 34.1135C20.5792 33.343 20.0457 33.2936 18.5738 33.9061Z" fill="#E24C55"/>
<path d="M21.9725 37.2164C21.5872 37.3744 20.0757 39.0242 19.9967 39.37C19.9177 39.7651 20.1745 40.269 20.5796 40.4567C21.1031 40.7135 21.4193 40.5555 22.4467 39.4984C23.2469 38.6982 23.4049 38.4809 23.4049 38.224C23.4049 37.4041 22.7035 36.9101 21.9725 37.2164Z" fill="#E24C55"/>
<path d="M25.2934 39.7559C24.9377 40.0918 24.1869 41.8503 24.1672 42.3837C24.1573 42.6999 24.2067 42.8184 24.4734 43.0555C24.8982 43.4408 25.3724 43.4408 25.7676 43.0654C26.1331 42.7295 26.8938 40.9611 26.9037 40.4376C26.9037 40.1313 26.8444 40.0029 26.5875 39.7757C26.1627 39.3904 25.6885 39.3904 25.2934 39.7559Z" fill="#E24C55"/>
<path d="M42.9152 44.5356C42.8066 44.5949 41.957 45.405 41.0185 46.3336L39.3193 48.0229L38.6475 47.3314C37.709 46.3533 37.4126 46.2249 36.8397 46.5707C36.5038 46.7584 36.3457 47.0844 36.3457 47.5388C36.3457 47.8253 36.4741 48.0031 37.3632 48.8922C38.7364 50.2852 38.9538 50.4531 39.3884 50.4531C39.7243 50.4531 39.8923 50.3148 42.0459 48.1513C44.3378 45.8693 44.3477 45.8495 44.3477 45.4247C44.3477 44.664 43.5771 44.18 42.9152 44.5356Z" fill="#E24C55"/>
<path d="M47.0537 46.5029C46.4116 46.7597 46.2337 47.5797 46.7079 48.1033L46.9944 48.4293L51.272 48.4589C54.3641 48.4787 55.6287 48.449 55.8361 48.37C56.5277 48.0835 56.7055 47.3327 56.2115 46.7795L55.925 46.4535L51.5881 46.4337C49.2073 46.4238 47.1624 46.4535 47.0537 46.5029Z" fill="#E24C55"/>
<path d="M43.1128 52.539C42.9152 52.5983 42.2138 53.2207 41.0876 54.3469L39.3687 56.0757L38.6179 55.3447C38.203 54.9495 37.7485 54.584 37.6003 54.5544C36.9384 54.3864 36.3457 54.8408 36.3457 55.5027C36.3457 55.9078 36.3951 55.967 37.6003 57.192C38.9538 58.5553 39.2205 58.7134 39.7638 58.4269C39.9219 58.338 41.0185 57.3007 42.204 56.1152L44.3477 53.9517V53.5072C44.3477 53.2701 44.2785 52.9935 44.2094 52.9046C44.0019 52.6279 43.4487 52.4501 43.1128 52.539Z" fill="#E24C55"/>
<path d="M46.9258 54.643C46.3627 54.9591 46.254 55.7395 46.7084 56.194L46.9949 56.4805H49.435H51.8751L52.1616 56.194C52.6358 55.7099 52.537 54.9591 51.9542 54.6529C51.559 54.4454 47.2913 54.4355 46.9258 54.643Z" fill="#E24C55"/>
</svg>
