<svg width="42" height="42" viewBox="0 0 42 42" fill="none" xmlns="http://www.w3.org/2000/svg">
<circle cx="21" cy="21" r="20.0846" stroke="#C0C0C0" stroke-width="1.83077"/>
<g clip-path="url(#clip0_12_32)">
<path d="M8.43068 9.99042C8.33782 10.0126 8.25116 10.0666 8.14592 10.1682C7.91687 10.3968 7.87044 10.6603 8.00354 10.9555C8.07163 11.1079 8.20163 11.238 8.34711 11.3047C8.38116 11.3206 9.11782 11.3396 9.98449 11.3491L11.5631 11.365L11.6776 11.8571C11.7395 12.1269 12.0088 13.3047 12.2781 14.4761C12.7578 16.5714 13.5347 19.9777 14.29 23.2698C14.5035 24.1968 14.6769 24.9714 14.6769 24.9904C14.6769 25.0063 14.5469 25.0857 14.3921 25.165C13.8288 25.4444 13.3985 25.8857 13.1354 26.4539C12.6773 27.4444 12.8507 28.6444 13.5688 29.4285L13.7545 29.6349L13.6276 29.7777C13.1385 30.3238 12.894 31.1333 13.0054 31.8571C13.1664 32.9015 13.8907 33.7079 14.909 33.9682C15.2185 34.0476 15.7602 34.0412 16.0821 33.9555C16.9519 33.7206 17.6328 33.0222 17.8681 32.1269C17.9981 31.6317 17.9454 30.9428 17.7443 30.4761L17.6823 30.3333H22.1983H26.7143L26.64 30.5174C26.5007 30.8666 26.4604 31.092 26.4604 31.492C26.4604 31.9396 26.5254 32.2349 26.7204 32.6349C27.1693 33.5714 28.1845 34.1333 29.2059 34.0158C30.2304 33.8952 31.0507 33.1682 31.3323 32.1269C31.4221 31.8031 31.4314 31.2158 31.3509 30.9079C31.1404 30.1047 30.6638 29.5079 29.9612 29.1745C29.4566 28.9365 30.15 28.9587 22.2757 28.9396C15.4043 28.9206 15.2154 28.9174 15.0793 28.8603C14.7573 28.7174 14.4973 28.4698 14.3488 28.1587C14.2652 27.9841 14.259 27.9396 14.259 27.619C14.259 27.292 14.2652 27.2571 14.3581 27.0571C14.5407 26.6634 14.9152 26.3714 15.33 26.3015C15.4631 26.2825 17.6452 26.2698 21.8176 26.2698C26.2593 26.2698 28.1566 26.2603 28.2712 26.2349C28.754 26.1333 29.24 25.7428 29.4473 25.2857C29.5247 25.1206 29.6207 24.7809 29.7631 24.1904C29.9735 23.2984 30.3326 21.8031 30.7288 20.1428C30.8557 19.6095 31.0321 18.8825 31.1157 18.5238C31.2023 18.165 31.4469 17.1523 31.6573 16.2698C31.8709 15.3872 32.0504 14.5777 32.0628 14.4698C32.1278 13.7936 31.6728 13.1111 31.0228 12.9047C30.8309 12.8412 30.6854 12.8412 22.0559 12.8412C17.2304 12.8412 13.284 12.8349 13.284 12.8253C13.284 12.8158 13.1571 12.2634 13.0054 11.5936C12.6928 10.238 12.6773 10.1936 12.4019 10.0507L12.2502 9.96819L10.4054 9.96185C9.29116 9.95867 8.51116 9.97137 8.43068 9.99042ZM30.6607 14.2571C30.6885 14.2825 30.7102 14.3269 30.7102 14.3491C30.7102 14.3872 30.3604 15.8857 30.2738 16.2126L30.2428 16.3333H22.1673C17.7226 16.3333 14.0888 16.3301 14.0888 16.3238C14.0888 16.3174 13.9835 15.8634 13.8566 15.3174C13.7297 14.7682 13.6245 14.292 13.6245 14.2603C13.6245 14.2095 14.0485 14.2063 22.1178 14.2063C29.8002 14.2063 30.6173 14.2126 30.6607 14.2571ZM29.9054 17.7428C29.9054 17.7587 29.7043 18.6095 29.2121 20.6666C29.0357 21.3999 28.7478 22.5999 28.5714 23.3333C28.2712 24.5999 28.2495 24.673 28.1535 24.7682L28.0545 24.873H22.0528H16.0512L15.2402 21.3238C14.7945 19.3745 14.4293 17.7682 14.4293 17.7523C14.4293 17.7301 29.9054 17.7206 29.9054 17.7428ZM15.9212 30.4349C16.8373 30.8666 16.7971 32.1809 15.8593 32.5682C15.6581 32.6507 15.299 32.6539 15.0947 32.5745C14.7357 32.4349 14.5066 32.1841 14.3952 31.8126C14.2126 31.2095 14.5407 30.5809 15.1504 30.3777C15.3516 30.3111 15.7107 30.3365 15.9212 30.4349ZM29.4009 30.4444C29.6362 30.5491 29.8435 30.7682 29.9612 31.0253C30.0323 31.1809 30.0447 31.2476 30.0447 31.492C30.0447 31.8539 29.9581 32.0666 29.7073 32.3174C29.4814 32.5428 29.2647 32.6285 28.9304 32.6317C28.7138 32.6317 28.6519 32.619 28.4723 32.5333C28.1381 32.3714 27.9152 32.0888 27.8316 31.7238C27.7852 31.5174 27.7945 31.3777 27.8626 31.1491C28.0638 30.4825 28.7757 30.1555 29.4009 30.4444Z" fill="#333333"/>
</g>
<defs>
<clipPath id="clip0_12_32">
<rect width="26" height="26" fill="white" transform="translate(7 9)"/>
</clipPath>
</defs>
</svg>
