<svg width="42" height="42" viewBox="0 0 42 42" fill="none" xmlns="http://www.w3.org/2000/svg">
<circle cx="21" cy="21" r="21" fill="#27ACC9"/>
<path d="M12.0351 26.0417L15.2238 24.6568L14.3291 25.5536C14.0423 25.8404 13.8817 26.2288 13.8817 26.6315V32.6001C13.8817 33.9667 15.533 34.6296 16.4847 33.6779L19.6856 30.477L26.6609 33.9647C27.5638 34.4161 28.6559 33.8813 28.843 32.8726L32.8227 10.9889C33.0322 9.81145 31.873 8.85972 30.7647 9.29491L4.9053 19.4162C3.74614 19.8677 3.59159 21.4539 4.64093 22.1229L10.6076 25.9299C11.0346 26.2024 11.5735 26.2451 12.0351 26.0417V26.0417ZM29.3331 13.1344L26.2074 30.3286L20.0659 27.2598C19.4721 26.9629 18.7644 27.087 18.3068 27.5466L16.9321 28.9213V27.268L23.0472 21.1529C24.2328 19.9673 22.8987 18.011 21.3613 18.676L11.5654 22.9262L8.81187 21.1692L29.3331 13.1344Z" fill="white"/>
</svg>
