<svg width="42" height="42" viewBox="0 0 42 42" fill="none" xmlns="http://www.w3.org/2000/svg">
<circle cx="21" cy="21" r="21" fill="#48C162"/>
<path fill-rule="evenodd" clip-rule="evenodd" d="M30.7779 11.024C28.185 8.43106 24.7397 7 21.07 7C13.5065 7 7.34711 13.1549 7.34711 20.7184C7.34262 23.1364 7.97516 25.4961 9.17743 27.5777L7.23047 34.6881L14.5069 32.777C16.5077 33.8716 18.7687 34.4459 21.0656 34.4503H21.07C28.6336 34.4503 34.7885 28.2954 34.793 20.7274C34.793 17.0623 33.3664 13.617 30.7779 11.024ZM21.07 32.131H21.0656C19.0199 32.131 17.0101 31.5793 15.2606 30.543L14.8434 30.2962L10.5233 31.4267L11.6762 27.2188L11.407 26.7881C10.2631 24.9713 9.66193 22.8718 9.66193 20.7184C9.66193 14.4334 14.7805 9.3193 21.0745 9.3193C24.1206 9.3193 26.9827 10.5081 29.136 12.6614C31.2893 14.8192 32.4737 17.6814 32.4737 20.7274C32.4737 27.0169 27.355 32.131 21.07 32.131ZM27.3236 23.5895C26.9827 23.4191 25.2959 22.5891 24.9819 22.477C24.6679 22.3604 24.4391 22.3065 24.2103 22.6475C23.9815 22.9929 23.3265 23.7645 23.1247 23.9933C22.9273 24.2176 22.7254 24.249 22.3845 24.0785C22.039 23.908 20.9355 23.5447 19.6255 22.3738C18.6072 21.4676 17.9163 20.3416 17.7189 20.0007C17.5171 19.6552 17.6965 19.4713 17.867 19.3008C18.024 19.1483 18.2124 18.9016 18.3829 18.6997C18.5533 18.5023 18.6117 18.3588 18.7283 18.13C18.8405 17.9012 18.7821 17.6993 18.6969 17.5288C18.6117 17.3584 17.9253 15.6671 17.6382 14.9807C17.36 14.3123 17.0774 14.4065 16.8666 14.3931C16.6692 14.3841 16.4404 14.3841 16.2116 14.3841C15.9828 14.3841 15.6105 14.4693 15.2964 14.8148C14.9824 15.1557 14.0987 15.9856 14.0987 17.6724C14.0987 19.3592 15.3278 20.9921 15.4983 21.2209C15.6688 21.4452 17.9163 24.9084 21.3571 26.3933C22.1736 26.7477 22.8106 26.9586 23.3086 27.1156C24.1295 27.3758 24.8787 27.3399 25.4709 27.2547C26.1303 27.156 27.4986 26.4247 27.7857 25.6217C28.0683 24.8232 28.0683 24.1368 27.9831 23.9933C27.8979 23.8497 27.6691 23.7645 27.3236 23.5895Z" fill="white"/>
</svg>
